ISO-10303-21;
HEADER;
FILE_DESCRIPTION(('KiCad electronic assembly'),'2;1');
FILE_NAME('OpenFC-board.step','2026-08-15T00:56:55',('Pcbnew'),('Kicad')
  ,'Open CASCADE STEP processor 7.9','KiCad to STEP converter','Unknown'
  );
FILE_SCHEMA(('AUTOMOTIVE_DESIGN { 1 0 10303 214 1 1 1 1 }'));
ENDSEC;
DATA;
#1 = APPLICATION_PROTOCOL_DEFINITION('international standard',
  'automotive_design',2000,#2);
#2 = APPLICATION_CONTEXT(
  'core data for automotive mechanical design processes');
#3 = SHAPE_DEFINITION_REPRESENTATION(#4,#10);
#4 = PRODUCT_DEFINITION_SHAPE('','',#5);
#5 = PRODUCT_DEFINITION('design','',#6,#9);
#6 = PRODUCT_DEFINITION_FORMATION('','',#7);
#7 = PRODUCT('OpenFC-board 1','OpenFC-board 1','',(#8));
#8 = PRODUCT_CONTEXT('',#2,'mechanical');
#9 = PRODUCT_DEFINITION_CONTEXT('part definition',#2,'design');
#10 = SHAPE_REPRESENTATION('',(#11,#15),#19);
#11 = AXIS2_PLACEMENT_3D('',#12,#13,#14);
#12 = CARTESIAN_POINT('',(0.,0.,0.));
#13 = DIRECTION('',(0.,0.,1.));
#14 = DIRECTION('',(1.,0.,-0.));
#15 = AXIS2_PLACEMENT_3D('',#16,#17,#18);
#16 = CARTESIAN_POINT('',(0.,0.,0.));
#17 = DIRECTION('',(0.,0.,1.));
#18 = DIRECTION('',(1.,0.,-0.));
#19 = ( GEOMETRIC_REPRESENTATION_CONTEXT(3) 
GLOBAL_UNCERTAINTY_ASSIGNED_CONTEXT((#23)) GLOBAL_UNIT_ASSIGNED_CONTEXT(
(#20,#21,#22)) REPRESENTATION_CONTEXT('Context #1',
  '3D Context with UNIT and UNCERTAINTY') );
#20 = ( LENGTH_UNIT() NAMED_UNIT(*) SI_UNIT(.MILLI.,.METRE.) );
#21 = ( NAMED_UNIT(*) PLANE_ANGLE_UNIT() SI_UNIT($,.RADIAN.) );
#22 = ( NAMED_UNIT(*) SI_UNIT($,.STERADIAN.) SOLID_ANGLE_UNIT() );
#23 = UNCERTAINTY_MEASURE_WITH_UNIT(LENGTH_MEASURE(1.E-07),#20,
  'distance_accuracy_value','confusion accuracy');
#24 = PRODUCT_RELATED_PRODUCT_CATEGORY('part',$,(#7));
#25 = SHAPE_DEFINITION_REPRESENTATION(#26,#32);
#26 = PRODUCT_DEFINITION_SHAPE('','',#27);
#27 = PRODUCT_DEFINITION('design','',#28,#31);
#28 = PRODUCT_DEFINITION_FORMATION('','',#29);
#29 = PRODUCT('Ope957D_PCB','Ope957D_PCB','',(#30));
#30 = PRODUCT_CONTEXT('',#2,'mechanical');
#31 = PRODUCT_DEFINITION_CONTEXT('part definition',#2,'design');
#32 = ADVANCED_BREP_SHAPE_REPRESENTATION('',(#11,#33),#2243);
#33 = MANIFOLD_SOLID_BREP('',#34);
#34 = CLOSED_SHELL('',(#35,#77,#108,#139,#675,#1211,#1228,#1245,#1262,
    #1279,#1296,#1313,#1330,#1347,#1364,#1381,#1398,#1415,#1432,#1449,
    #1466,#1483,#1500,#1517,#1534,#1551,#1568,#1585,#1602,#1619,#1636,
    #1653,#1670,#1687,#1704,#1721,#1738,#1755,#1772,#1789,#1806,#1823,
    #1840,#1857,#1874,#1891,#1908,#1925,#1942,#1959,#1976,#1993,#2010,
    #2027,#2044,#2061,#2078,#2095,#2112,#2129,#2146,#2163,#2175,#2192,
    #2209,#2226));
#35 = ADVANCED_FACE('',(#36),#72,.F.);
#36 = FACE_BOUND('',#37,.T.);
#37 = EDGE_LOOP('',(#38,#48,#57,#65));
#38 = ORIENTED_EDGE('',*,*,#39,.T.);
#39 = EDGE_CURVE('',#40,#42,#44,.T.);
#40 = VERTEX_POINT('',#41);
#41 = CARTESIAN_POINT('',(142.48784,-69.637358,0.));
#42 = VERTEX_POINT('',#43);
#43 = CARTESIAN_POINT('',(142.48784,-69.637358,0.9378));
#44 = LINE('',#45,#46);
#45 = CARTESIAN_POINT('',(142.48784,-69.637358,0.));
#46 = VECTOR('',#47,1.);
#47 = DIRECTION('',(0.,0.,1.));
#48 = ORIENTED_EDGE('',*,*,#49,.T.);
#49 = EDGE_CURVE('',#42,#50,#52,.T.);
#50 = VERTEX_POINT('',#51);
#51 = CARTESIAN_POINT('',(142.717271,-69.709697,0.9378));
#52 = CIRCLE('',#53,0.39999571705);
#53 = AXIS2_PLACEMENT_3D('',#54,#55,#56);
#54 = CARTESIAN_POINT('',(142.7172689638,-69.30970128295,0.9378));
#55 = DIRECTION('',(0.,0.,1.));
#56 = DIRECTION('',(-0.573578551039,-0.819150563564,0.));
#57 = ORIENTED_EDGE('',*,*,#58,.F.);
#58 = EDGE_CURVE('',#59,#50,#61,.T.);
#59 = VERTEX_POINT('',#60);
#60 = CARTESIAN_POINT('',(142.717271,-69.709697,0.));
#61 = LINE('',#62,#63);
#62 = CARTESIAN_POINT('',(142.717271,-69.709697,0.));
#63 = VECTOR('',#64,1.);
#64 = DIRECTION('',(0.,0.,1.));
#65 = ORIENTED_EDGE('',*,*,#66,.F.);
#66 = EDGE_CURVE('',#40,#59,#67,.T.);
#67 = CIRCLE('',#68,0.39999571705);
#68 = AXIS2_PLACEMENT_3D('',#69,#70,#71);
#69 = CARTESIAN_POINT('',(142.7172689638,-69.30970128295,0.));
#70 = DIRECTION('',(0.,0.,1.));
#71 = DIRECTION('',(-0.573578551039,-0.819150563564,0.));
#72 = CYLINDRICAL_SURFACE('',#73,0.39999571705);
#73 = AXIS2_PLACEMENT_3D('',#74,#75,#76);
#74 = CARTESIAN_POINT('',(142.7172689638,-69.30970128295,0.));
#75 = DIRECTION('',(-0.,-0.,-1.));
#76 = DIRECTION('',(-0.573578551039,-0.819150563564,0.));
#77 = ADVANCED_FACE('',(#78),#103,.T.);
#78 = FACE_BOUND('',#79,.T.);
#79 = EDGE_LOOP('',(#80,#90,#96,#97));
#80 = ORIENTED_EDGE('',*,*,#81,.T.);
#81 = EDGE_CURVE('',#82,#84,#86,.T.);
#82 = VERTEX_POINT('',#83);
#83 = CARTESIAN_POINT('',(140.418722,-68.188546,0.));
#84 = VERTEX_POINT('',#85);
#85 = CARTESIAN_POINT('',(140.418722,-68.188546,0.9378));
#86 = LINE('',#87,#88);
#87 = CARTESIAN_POINT('',(140.418722,-68.188546,0.));
#88 = VECTOR('',#89,1.);
#89 = DIRECTION('',(0.,0.,1.));
#90 = ORIENTED_EDGE('',*,*,#91,.T.);
#91 = EDGE_CURVE('',#84,#42,#92,.T.);
#92 = LINE('',#93,#94);
#93 = CARTESIAN_POINT('',(140.418722,-68.188546,0.9378));
#94 = VECTOR('',#95,1.);
#95 = DIRECTION('',(0.819152048204,-0.57357643076,0.));
#96 = ORIENTED_EDGE('',*,*,#39,.F.);
#97 = ORIENTED_EDGE('',*,*,#98,.F.);
#98 = EDGE_CURVE('',#82,#40,#99,.T.);
#99 = LINE('',#100,#101);
#100 = CARTESIAN_POINT('',(140.418722,-68.188546,0.));
#101 = VECTOR('',#102,1.);
#102 = DIRECTION('',(0.819152048204,-0.57357643076,0.));
#103 = PLANE('',#104);
#104 = AXIS2_PLACEMENT_3D('',#105,#106,#107);
#105 = CARTESIAN_POINT('',(140.418722,-68.188546,0.));
#106 = DIRECTION('',(0.57357643076,0.819152048204,-0.));
#107 = DIRECTION('',(0.819152048204,-0.57357643076,0.));
#108 = ADVANCED_FACE('',(#109),#134,.T.);
#109 = FACE_BOUND('',#110,.T.);
#110 = EDGE_LOOP('',(#111,#112,#120,#128));
#111 = ORIENTED_EDGE('',*,*,#58,.T.);
#112 = ORIENTED_EDGE('',*,*,#113,.T.);
#113 = EDGE_CURVE('',#50,#114,#116,.T.);
#114 = VERTEX_POINT('',#115);
#115 = CARTESIAN_POINT('',(153.091151,-69.709697,0.9378));
#116 = LINE('',#117,#118);
#117 = CARTESIAN_POINT('',(142.717271,-69.709697,0.9378));
#118 = VECTOR('',#119,1.);
#119 = DIRECTION('',(1.,0.,0.));
#120 = ORIENTED_EDGE('',*,*,#121,.F.);
#121 = EDGE_CURVE('',#122,#114,#124,.T.);
#122 = VERTEX_POINT('',#123);
#123 = CARTESIAN_POINT('',(153.091151,-69.709697,0.));
#124 = LINE('',#125,#126);
#125 = CARTESIAN_POINT('',(153.091151,-69.709697,0.));
#126 = VECTOR('',#127,1.);
#127 = DIRECTION('',(0.,0.,1.));
#128 = ORIENTED_EDGE('',*,*,#129,.F.);
#129 = EDGE_CURVE('',#59,#122,#130,.T.);
#130 = LINE('',#131,#132);
#131 = CARTESIAN_POINT('',(142.717271,-69.709697,0.));
#132 = VECTOR('',#133,1.);
#133 = DIRECTION('',(1.,0.,0.));
#134 = PLANE('',#135);
#135 = AXIS2_PLACEMENT_3D('',#136,#137,#138);
#136 = CARTESIAN_POINT('',(142.717271,-69.709697,0.));
#137 = DIRECTION('',(0.,1.,0.));
#138 = DIRECTION('',(1.,0.,0.));
#139 = ADVANCED_FACE('',(#140,#626,#637,#648,#659),#670,.F.);
#140 = FACE_BOUND('',#141,.F.);
#141 = EDGE_LOOP('',(#142,#143,#144,#152,#161,#169,#178,#187,#196,#204,
    #213,#221,#229,#238,#246,#254,#263,#271,#279,#288,#296,#305,#314,
    #323,#331,#340,#348,#356,#365,#373,#381,#390,#398,#406,#415,#423,
    #432,#441,#450,#458,#467,#475,#483,#492,#500,#508,#517,#525,#533,
    #542,#550,#559,#568,#577,#585,#594,#602,#610,#619,#625));
#142 = ORIENTED_EDGE('',*,*,#66,.F.);
#143 = ORIENTED_EDGE('',*,*,#98,.F.);
#144 = ORIENTED_EDGE('',*,*,#145,.F.);
#145 = EDGE_CURVE('',#146,#82,#148,.T.);
#146 = VERTEX_POINT('',#147);
#147 = CARTESIAN_POINT('',(136.521454,-68.188546,0.));
#148 = LINE('',#149,#150);
#149 = CARTESIAN_POINT('',(136.521454,-68.188546,0.));
#150 = VECTOR('',#151,1.);
#151 = DIRECTION('',(1.,0.,0.));
#152 = ORIENTED_EDGE('',*,*,#153,.F.);
#153 = EDGE_CURVE('',#154,#146,#156,.T.);
#154 = VERTEX_POINT('',#155);
#155 = CARTESIAN_POINT('',(136.158931,-68.757593,0.));
#156 = CIRCLE('',#157,0.399999237686);
#157 = AXIS2_PLACEMENT_3D('',#158,#159,#160);
#158 = CARTESIAN_POINT('',(136.5214530603,-68.58854523768,0.));
#159 = DIRECTION('',(0.,0.,-1.));
#160 = DIRECTION('',(-0.906306877981,-0.422620211212,-0.));
#161 = ORIENTED_EDGE('',*,*,#162,.F.);
#162 = EDGE_CURVE('',#163,#154,#165,.T.);
#163 = VERTEX_POINT('',#164);
#164 = CARTESIAN_POINT('',(136.656227,-69.824048,0.));
#165 = LINE('',#166,#167);
#166 = CARTESIAN_POINT('',(136.656227,-69.824048,0.));
#167 = VECTOR('',#168,1.);
#168 = DIRECTION('',(-0.422618168497,0.906307830517,0.));
#169 = ORIENTED_EDGE('',*,*,#170,.F.);
#170 = EDGE_CURVE('',#171,#163,#173,.T.);
#171 = VERTEX_POINT('',#172);
#172 = CARTESIAN_POINT('',(137.155817,-70.030783,0.));
#173 = CIRCLE('',#174,0.399999723522);
#174 = AXIS2_PLACEMENT_3D('',#175,#176,#177);
#175 = CARTESIAN_POINT('',(137.01874979721,-69.6550006684,0.));
#176 = DIRECTION('',(0.,0.,-1.));
#177 = DIRECTION('',(0.342668243818,-0.939456478331,0.));
#178 = ORIENTED_EDGE('',*,*,#179,.F.);
#179 = EDGE_CURVE('',#180,#171,#182,.T.);
#180 = VERTEX_POINT('',#181);
#181 = CARTESIAN_POINT('',(135.962237,-71.224363,0.));
#182 = CIRCLE('',#183,2.000000361287);
#183 = AXIS2_PLACEMENT_3D('',#184,#185,#186);
#184 = CARTESIAN_POINT('',(137.84115118215,-71.90969718215,0.));
#185 = DIRECTION('',(0.,-0.,1.));
#186 = DIRECTION('',(-0.939456921372,0.342667029178,0.));
#187 = ORIENTED_EDGE('',*,*,#188,.F.);
#188 = EDGE_CURVE('',#189,#180,#191,.T.);
#189 = VERTEX_POINT('',#190);
#190 = CARTESIAN_POINT('',(135.755502,-70.724773,0.));
#191 = CIRCLE('',#192,0.399999723522);
#192 = AXIS2_PLACEMENT_3D('',#193,#194,#195);
#193 = CARTESIAN_POINT('',(135.5864546684,-71.08729579721,0.));
#194 = DIRECTION('',(0.,0.,-1.));
#195 = DIRECTION('',(0.422618621096,0.906307619466,0.));
#196 = ORIENTED_EDGE('',*,*,#197,.F.);
#197 = EDGE_CURVE('',#198,#189,#200,.T.);
#198 = VERTEX_POINT('',#199);
#199 = CARTESIAN_POINT('',(134.689047,-70.227477,0.));
#200 = LINE('',#201,#202);
#201 = CARTESIAN_POINT('',(134.689047,-70.227477,0.));
#202 = VECTOR('',#203,1.);
#203 = DIRECTION('',(0.906307830517,-0.422618168497,0.));
#204 = ORIENTED_EDGE('',*,*,#205,.F.);
#205 = EDGE_CURVE('',#206,#198,#208,.T.);
#206 = VERTEX_POINT('',#207);
#207 = CARTESIAN_POINT('',(134.12,-70.59,0.));
#208 = CIRCLE('',#209,0.399999237686);
#209 = AXIS2_PLACEMENT_3D('',#210,#211,#212);
#210 = CARTESIAN_POINT('',(134.51999923768,-70.5899990603,0.));
#211 = DIRECTION('',(0.,0.,-1.));
#212 = DIRECTION('',(-0.999999999997,-2.349250430494E-06,-0.));
#213 = ORIENTED_EDGE('',*,*,#214,.F.);
#214 = EDGE_CURVE('',#215,#206,#217,.T.);
#215 = VERTEX_POINT('',#216);
#216 = CARTESIAN_POINT('',(134.12,-74.487268,0.));
#217 = LINE('',#218,#219);
#218 = CARTESIAN_POINT('',(134.12,-74.487268,0.));
#219 = VECTOR('',#220,1.);
#220 = DIRECTION('',(0.,1.,0.));
#221 = ORIENTED_EDGE('',*,*,#222,.F.);
#222 = EDGE_CURVE('',#223,#215,#225,.T.);
#223 = VERTEX_POINT('',#224);
#224 = CARTESIAN_POINT('',(135.568812,-76.556386,0.));
#225 = LINE('',#226,#227);
#226 = CARTESIAN_POINT('',(135.568812,-76.556386,0.));
#227 = VECTOR('',#228,1.);
#228 = DIRECTION('',(-0.57357643076,0.819152048204,0.));
#229 = ORIENTED_EDGE('',*,*,#230,.F.);
#230 = EDGE_CURVE('',#231,#223,#233,.T.);
#231 = VERTEX_POINT('',#232);
#232 = CARTESIAN_POINT('',(135.641151,-76.785817,0.));
#233 = CIRCLE('',#234,0.39999571705);
#234 = AXIS2_PLACEMENT_3D('',#235,#236,#237);
#235 = CARTESIAN_POINT('',(135.24115528295,-76.7858149638,0.));
#236 = DIRECTION('',(0.,0.,1.));
#237 = DIRECTION('',(0.999999999987,-5.090535751691E-06,0.));
#238 = ORIENTED_EDGE('',*,*,#239,.F.);
#239 = EDGE_CURVE('',#240,#231,#242,.T.);
#240 = VERTEX_POINT('',#241);
#241 = CARTESIAN_POINT('',(135.641151,-87.159697,0.));
#242 = LINE('',#243,#244);
#243 = CARTESIAN_POINT('',(135.641151,-87.159697,0.));
#244 = VECTOR('',#245,1.);
#245 = DIRECTION('',(0.,1.,0.));
#246 = ORIENTED_EDGE('',*,*,#247,.F.);
#247 = EDGE_CURVE('',#248,#240,#250,.T.);
#248 = VERTEX_POINT('',#249);
#249 = CARTESIAN_POINT('',(135.641151,-97.533577,0.));
#250 = LINE('',#251,#252);
#251 = CARTESIAN_POINT('',(135.641151,-97.533577,0.));
#252 = VECTOR('',#253,1.);
#253 = DIRECTION('',(0.,1.,0.));
#254 = ORIENTED_EDGE('',*,*,#255,.F.);
#255 = EDGE_CURVE('',#256,#248,#258,.T.);
#256 = VERTEX_POINT('',#257);
#257 = CARTESIAN_POINT('',(135.568812,-97.763008,0.));
#258 = CIRCLE('',#259,0.39999571705);
#259 = AXIS2_PLACEMENT_3D('',#260,#261,#262);
#260 = CARTESIAN_POINT('',(135.24115528295,-97.53357903619,0.));
#261 = DIRECTION('',(0.,0.,1.));
#262 = DIRECTION('',(0.819150563564,-0.573578551039,0.));
#263 = ORIENTED_EDGE('',*,*,#264,.F.);
#264 = EDGE_CURVE('',#265,#256,#267,.T.);
#265 = VERTEX_POINT('',#266);
#266 = CARTESIAN_POINT('',(134.12,-99.832126,0.));
#267 = LINE('',#268,#269);
#268 = CARTESIAN_POINT('',(134.12,-99.832126,0.));
#269 = VECTOR('',#270,1.);
#270 = DIRECTION('',(0.57357643076,0.819152048204,0.));
#271 = ORIENTED_EDGE('',*,*,#272,.F.);
#272 = EDGE_CURVE('',#273,#265,#275,.T.);
#273 = VERTEX_POINT('',#274);
#274 = CARTESIAN_POINT('',(134.12,-103.729394,0.));
#275 = LINE('',#276,#277);
#276 = CARTESIAN_POINT('',(134.12,-103.729394,0.));
#277 = VECTOR('',#278,1.);
#278 = DIRECTION('',(0.,1.,0.));
#279 = ORIENTED_EDGE('',*,*,#280,.F.);
#280 = EDGE_CURVE('',#281,#273,#283,.T.);
#281 = VERTEX_POINT('',#282);
#282 = CARTESIAN_POINT('',(134.689047,-104.091917,0.));
#283 = CIRCLE('',#284,0.399999237686);
#284 = AXIS2_PLACEMENT_3D('',#285,#286,#287);
#285 = CARTESIAN_POINT('',(134.51999923768,-103.7293949396,0.));
#286 = DIRECTION('',(0.,0.,-1.));
#287 = DIRECTION('',(0.422620211212,-0.906306877981,0.));
#288 = ORIENTED_EDGE('',*,*,#289,.F.);
#289 = EDGE_CURVE('',#290,#281,#292,.T.);
#290 = VERTEX_POINT('',#291);
#291 = CARTESIAN_POINT('',(135.755502,-103.594621,0.));
#292 = LINE('',#293,#294);
#293 = CARTESIAN_POINT('',(135.755502,-103.594621,0.));
#294 = VECTOR('',#295,1.);
#295 = DIRECTION('',(-0.906307830517,-0.422618168497,0.));
#296 = ORIENTED_EDGE('',*,*,#297,.F.);
#297 = EDGE_CURVE('',#298,#290,#300,.T.);
#298 = VERTEX_POINT('',#299);
#299 = CARTESIAN_POINT('',(135.962237,-103.095031,0.));
#300 = CIRCLE('',#301,0.399999723522);
#301 = AXIS2_PLACEMENT_3D('',#302,#303,#304);
#302 = CARTESIAN_POINT('',(135.5864546684,-103.2320982027,0.));
#303 = DIRECTION('',(0.,0.,-1.));
#304 = DIRECTION('',(0.939456478331,0.342668243818,0.));
#305 = ORIENTED_EDGE('',*,*,#306,.F.);
#306 = EDGE_CURVE('',#307,#298,#309,.T.);
#307 = VERTEX_POINT('',#308);
#308 = CARTESIAN_POINT('',(137.155817,-104.288611,0.));
#309 = CIRCLE('',#310,2.000000361287);
#310 = AXIS2_PLACEMENT_3D('',#311,#312,#313);
#311 = CARTESIAN_POINT('',(137.84115118215,-102.4096968178,0.));
#312 = DIRECTION('',(0.,0.,1.));
#313 = DIRECTION('',(-0.342667029178,-0.939456921372,0.));
#314 = ORIENTED_EDGE('',*,*,#315,.F.);
#315 = EDGE_CURVE('',#316,#307,#318,.T.);
#316 = VERTEX_POINT('',#317);
#317 = CARTESIAN_POINT('',(136.656227,-104.495346,0.));
#318 = CIRCLE('',#319,0.399999723522);
#319 = AXIS2_PLACEMENT_3D('',#320,#321,#322);
#320 = CARTESIAN_POINT('',(137.01874979721,-104.6643933315,0.));
#321 = DIRECTION('',(0.,0.,-1.));
#322 = DIRECTION('',(-0.906307619466,0.422618621096,0.));
#323 = ORIENTED_EDGE('',*,*,#324,.F.);
#324 = EDGE_CURVE('',#325,#316,#327,.T.);
#325 = VERTEX_POINT('',#326);
#326 = CARTESIAN_POINT('',(136.158931,-105.561801,0.));
#327 = LINE('',#328,#329);
#328 = CARTESIAN_POINT('',(136.158931,-105.561801,0.));
#329 = VECTOR('',#330,1.);
#330 = DIRECTION('',(0.422618168497,0.906307830517,0.));
#331 = ORIENTED_EDGE('',*,*,#332,.F.);
#332 = EDGE_CURVE('',#333,#325,#335,.T.);
#333 = VERTEX_POINT('',#334);
#334 = CARTESIAN_POINT('',(136.521454,-106.130848,0.));
#335 = CIRCLE('',#336,0.399999237686);
#336 = AXIS2_PLACEMENT_3D('',#337,#338,#339);
#337 = CARTESIAN_POINT('',(136.5214530603,-105.7308487623,0.));
#338 = DIRECTION('',(0.,0.,-1.));
#339 = DIRECTION('',(2.349250394966E-06,-0.999999999997,0.));
#340 = ORIENTED_EDGE('',*,*,#341,.F.);
#341 = EDGE_CURVE('',#342,#333,#344,.T.);
#342 = VERTEX_POINT('',#343);
#343 = CARTESIAN_POINT('',(140.418722,-106.130848,0.));
#344 = LINE('',#345,#346);
#345 = CARTESIAN_POINT('',(140.418722,-106.130848,0.));
#346 = VECTOR('',#347,1.);
#347 = DIRECTION('',(-1.,0.,0.));
#348 = ORIENTED_EDGE('',*,*,#349,.F.);
#349 = EDGE_CURVE('',#350,#342,#352,.T.);
#350 = VERTEX_POINT('',#351);
#351 = CARTESIAN_POINT('',(142.48784,-104.682036,0.));
#352 = LINE('',#353,#354);
#353 = CARTESIAN_POINT('',(142.48784,-104.682036,0.));
#354 = VECTOR('',#355,1.);
#355 = DIRECTION('',(-0.819152048204,-0.57357643076,0.));
#356 = ORIENTED_EDGE('',*,*,#357,.F.);
#357 = EDGE_CURVE('',#358,#350,#360,.T.);
#358 = VERTEX_POINT('',#359);
#359 = CARTESIAN_POINT('',(142.717271,-104.609697,0.));
#360 = CIRCLE('',#361,0.39999571705);
#361 = AXIS2_PLACEMENT_3D('',#362,#363,#364);
#362 = CARTESIAN_POINT('',(142.7172689638,-105.009692717,0.));
#363 = DIRECTION('',(0.,0.,1.));
#364 = DIRECTION('',(5.090535929331E-06,0.999999999987,-0.));
#365 = ORIENTED_EDGE('',*,*,#366,.F.);
#366 = EDGE_CURVE('',#367,#358,#369,.T.);
#367 = VERTEX_POINT('',#368);
#368 = CARTESIAN_POINT('',(153.091151,-104.609697,0.));
#369 = LINE('',#370,#371);
#370 = CARTESIAN_POINT('',(153.091151,-104.609697,0.));
#371 = VECTOR('',#372,1.);
#372 = DIRECTION('',(-1.,0.,0.));
#373 = ORIENTED_EDGE('',*,*,#374,.F.);
#374 = EDGE_CURVE('',#375,#367,#377,.T.);
#375 = VERTEX_POINT('',#376);
#376 = CARTESIAN_POINT('',(163.465031,-104.609697,0.));
#377 = LINE('',#378,#379);
#378 = CARTESIAN_POINT('',(163.465031,-104.609697,0.));
#379 = VECTOR('',#380,1.);
#380 = DIRECTION('',(-1.,0.,0.));
#381 = ORIENTED_EDGE('',*,*,#382,.F.);
#382 = EDGE_CURVE('',#383,#375,#385,.T.);
#383 = VERTEX_POINT('',#384);
#384 = CARTESIAN_POINT('',(163.694462,-104.682036,0.));
#385 = CIRCLE('',#386,0.39988509768);
#386 = AXIS2_PLACEMENT_3D('',#387,#388,#389);
#387 = CARTESIAN_POINT('',(163.46506791472,-105.0095820959,0.));
#388 = DIRECTION('',(0.,0.,1.));
#389 = DIRECTION('',(0.573649997467,0.819100531319,-0.));
#390 = ORIENTED_EDGE('',*,*,#391,.F.);
#391 = EDGE_CURVE('',#392,#383,#394,.T.);
#392 = VERTEX_POINT('',#393);
#393 = CARTESIAN_POINT('',(165.76358,-106.130848,0.));
#394 = LINE('',#395,#396);
#395 = CARTESIAN_POINT('',(165.76358,-106.130848,0.));
#396 = VECTOR('',#397,1.);
#397 = DIRECTION('',(-0.819152048204,0.57357643076,0.));
#398 = ORIENTED_EDGE('',*,*,#399,.F.);
#399 = EDGE_CURVE('',#400,#392,#402,.T.);
#400 = VERTEX_POINT('',#401);
#401 = CARTESIAN_POINT('',(169.660848,-106.130848,0.));
#402 = LINE('',#403,#404);
#403 = CARTESIAN_POINT('',(169.660848,-106.130848,0.));
#404 = VECTOR('',#405,1.);
#405 = DIRECTION('',(-1.,0.,0.));
#406 = ORIENTED_EDGE('',*,*,#407,.F.);
#407 = EDGE_CURVE('',#408,#400,#410,.T.);
#408 = VERTEX_POINT('',#409);
#409 = CARTESIAN_POINT('',(170.023371,-105.561801,0.));
#410 = CIRCLE('',#411,0.39994589786);
#411 = AXIS2_PLACEMENT_3D('',#412,#413,#414);
#412 = CARTESIAN_POINT('',(169.6609326805,-105.7309021111,0.));
#413 = DIRECTION('',(0.,0.,-1.));
#414 = DIRECTION('',(0.90621836962,0.42280996507,0.));
#415 = ORIENTED_EDGE('',*,*,#416,.F.);
#416 = EDGE_CURVE('',#417,#408,#419,.T.);
#417 = VERTEX_POINT('',#418);
#418 = CARTESIAN_POINT('',(169.526075,-104.495346,0.));
#419 = LINE('',#420,#421);
#420 = CARTESIAN_POINT('',(169.526075,-104.495346,0.));
#421 = VECTOR('',#422,1.);
#422 = DIRECTION('',(0.422618168497,-0.906307830517,0.));
#423 = ORIENTED_EDGE('',*,*,#424,.F.);
#424 = EDGE_CURVE('',#425,#417,#427,.T.);
#425 = VERTEX_POINT('',#426);
#426 = CARTESIAN_POINT('',(169.026485,-104.288611,0.));
#427 = CIRCLE('',#428,0.400002313482);
#428 = AXIS2_PLACEMENT_3D('',#429,#430,#431);
#429 = CARTESIAN_POINT('',(169.16355085916,-104.6643965785,0.));
#430 = DIRECTION('',(0.,0.,-1.));
#431 = DIRECTION('',(-0.342662666062,0.939458512808,0.));
#432 = ORIENTED_EDGE('',*,*,#433,.F.);
#433 = EDGE_CURVE('',#434,#425,#436,.T.);
#434 = VERTEX_POINT('',#435);
#435 = CARTESIAN_POINT('',(170.220065,-103.095031,0.));
#436 = CIRCLE('',#437,2.000000361287);
#437 = AXIS2_PLACEMENT_3D('',#438,#439,#440);
#438 = CARTESIAN_POINT('',(168.34115081784,-102.4096968178,0.));
#439 = DIRECTION('',(0.,0.,1.));
#440 = DIRECTION('',(0.939456921372,-0.342667029178,0.));
#441 = ORIENTED_EDGE('',*,*,#442,.F.);
#442 = EDGE_CURVE('',#443,#434,#445,.T.);
#443 = VERTEX_POINT('',#444);
#444 = CARTESIAN_POINT('',(170.4268,-103.594621,0.));
#445 = CIRCLE('',#446,0.400002313482);
#446 = AXIS2_PLACEMENT_3D('',#447,#448,#449);
#447 = CARTESIAN_POINT('',(170.59585057854,-103.2320968591,0.));
#448 = DIRECTION('',(0.,0.,-1.));
#449 = DIRECTION('',(-0.422624002027,-0.906305110275,-0.));
#450 = ORIENTED_EDGE('',*,*,#451,.F.);
#451 = EDGE_CURVE('',#452,#443,#454,.T.);
#452 = VERTEX_POINT('',#453);
#453 = CARTESIAN_POINT('',(171.493255,-104.091917,0.));
#454 = LINE('',#455,#456);
#455 = CARTESIAN_POINT('',(171.493255,-104.091917,0.));
#456 = VECTOR('',#457,1.);
#457 = DIRECTION('',(-0.906307830517,0.422618168497,0.));
#458 = ORIENTED_EDGE('',*,*,#459,.F.);
#459 = EDGE_CURVE('',#460,#452,#462,.T.);
#460 = VERTEX_POINT('',#461);
#461 = CARTESIAN_POINT('',(172.062302,-103.729394,0.));
#462 = CIRCLE('',#463,0.400022563934);
#463 = AXIS2_PLACEMENT_3D('',#464,#465,#466);
#464 = CARTESIAN_POINT('',(171.66227943765,-103.7293583273,0.));
#465 = DIRECTION('',(0.,0.,-1.));
#466 = DIRECTION('',(0.999999996024,-8.917665538239E-05,0.));
#467 = ORIENTED_EDGE('',*,*,#468,.F.);
#468 = EDGE_CURVE('',#469,#460,#471,.T.);
#469 = VERTEX_POINT('',#470);
#470 = CARTESIAN_POINT('',(172.062302,-99.832126,0.));
#471 = LINE('',#472,#473);
#472 = CARTESIAN_POINT('',(172.062302,-99.832126,0.));
#473 = VECTOR('',#474,1.);
#474 = DIRECTION('',(0.,-1.,0.));
#475 = ORIENTED_EDGE('',*,*,#476,.F.);
#476 = EDGE_CURVE('',#477,#469,#479,.T.);
#477 = VERTEX_POINT('',#478);
#478 = CARTESIAN_POINT('',(170.61349,-97.763008,0.));
#479 = LINE('',#480,#481);
#480 = CARTESIAN_POINT('',(170.61349,-97.763008,0.));
#481 = VECTOR('',#482,1.);
#482 = DIRECTION('',(0.57357643076,-0.819152048204,0.));
#483 = ORIENTED_EDGE('',*,*,#484,.F.);
#484 = EDGE_CURVE('',#485,#477,#487,.T.);
#485 = VERTEX_POINT('',#486);
#486 = CARTESIAN_POINT('',(170.541151,-97.533577,0.));
#487 = CIRCLE('',#488,0.400100202344);
#488 = AXIS2_PLACEMENT_3D('',#489,#490,#491);
#489 = CARTESIAN_POINT('',(170.94125120115,-97.53354609262,0.));
#490 = DIRECTION('',(0.,0.,1.));
#491 = DIRECTION('',(-0.999999997016,-7.724908645043E-05,0.));
#492 = ORIENTED_EDGE('',*,*,#493,.F.);
#493 = EDGE_CURVE('',#494,#485,#496,.T.);
#494 = VERTEX_POINT('',#495);
#495 = CARTESIAN_POINT('',(170.541151,-87.159697,0.));
#496 = LINE('',#497,#498);
#497 = CARTESIAN_POINT('',(170.541151,-87.159697,0.));
#498 = VECTOR('',#499,1.);
#499 = DIRECTION('',(0.,-1.,0.));
#500 = ORIENTED_EDGE('',*,*,#501,.F.);
#501 = EDGE_CURVE('',#502,#494,#504,.T.);
#502 = VERTEX_POINT('',#503);
#503 = CARTESIAN_POINT('',(170.541151,-76.785817,0.));
#504 = LINE('',#505,#506);
#505 = CARTESIAN_POINT('',(170.541151,-76.785817,0.));
#506 = VECTOR('',#507,1.);
#507 = DIRECTION('',(0.,-1.,0.));
#508 = ORIENTED_EDGE('',*,*,#509,.F.);
#509 = EDGE_CURVE('',#510,#502,#512,.T.);
#510 = VERTEX_POINT('',#511);
#511 = CARTESIAN_POINT('',(170.61349,-76.556386,0.));
#512 = CIRCLE('',#513,0.39988509768);
#513 = AXIS2_PLACEMENT_3D('',#514,#515,#516);
#514 = CARTESIAN_POINT('',(170.94103609597,-76.78578008527,0.));
#515 = DIRECTION('',(0.,0.,1.));
#516 = DIRECTION('',(-0.819100531319,0.573649997467,0.));
#517 = ORIENTED_EDGE('',*,*,#518,.F.);
#518 = EDGE_CURVE('',#519,#510,#521,.T.);
#519 = VERTEX_POINT('',#520);
#520 = CARTESIAN_POINT('',(172.062302,-74.487268,0.));
#521 = LINE('',#522,#523);
#522 = CARTESIAN_POINT('',(172.062302,-74.487268,0.));
#523 = VECTOR('',#524,1.);
#524 = DIRECTION('',(-0.57357643076,-0.819152048204,0.));
#525 = ORIENTED_EDGE('',*,*,#526,.F.);
#526 = EDGE_CURVE('',#527,#519,#529,.T.);
#527 = VERTEX_POINT('',#528);
#528 = CARTESIAN_POINT('',(172.062302,-70.59,0.));
#529 = LINE('',#530,#531);
#530 = CARTESIAN_POINT('',(172.062302,-70.59,0.));
#531 = VECTOR('',#532,1.);
#532 = DIRECTION('',(0.,-1.,0.));
#533 = ORIENTED_EDGE('',*,*,#534,.F.);
#534 = EDGE_CURVE('',#535,#527,#537,.T.);
#535 = VERTEX_POINT('',#536);
#536 = CARTESIAN_POINT('',(171.493255,-70.227477,0.));
#537 = CIRCLE('',#538,0.39994589786);
#538 = AXIS2_PLACEMENT_3D('',#539,#540,#541);
#539 = CARTESIAN_POINT('',(171.6623561111,-70.58991531949,0.));
#540 = DIRECTION('',(0.,0.,-1.));
#541 = DIRECTION('',(-0.42280996507,0.90621836962,0.));
#542 = ORIENTED_EDGE('',*,*,#543,.F.);
#543 = EDGE_CURVE('',#544,#535,#546,.T.);
#544 = VERTEX_POINT('',#545);
#545 = CARTESIAN_POINT('',(170.4268,-70.724773,0.));
#546 = LINE('',#547,#548);
#547 = CARTESIAN_POINT('',(170.4268,-70.724773,0.));
#548 = VECTOR('',#549,1.);
#549 = DIRECTION('',(0.906307830517,0.422618168497,0.));
#550 = ORIENTED_EDGE('',*,*,#551,.F.);
#551 = EDGE_CURVE('',#552,#544,#554,.T.);
#552 = VERTEX_POINT('',#553);
#553 = CARTESIAN_POINT('',(170.220065,-71.224363,0.));
#554 = CIRCLE('',#555,0.400002313482);
#555 = AXIS2_PLACEMENT_3D('',#556,#557,#558);
#556 = CARTESIAN_POINT('',(170.59585057854,-71.08729714083,0.));
#557 = DIRECTION('',(0.,0.,-1.));
#558 = DIRECTION('',(-0.939458512808,-0.342662666062,-0.));
#559 = ORIENTED_EDGE('',*,*,#560,.F.);
#560 = EDGE_CURVE('',#561,#552,#563,.T.);
#561 = VERTEX_POINT('',#562);
#562 = CARTESIAN_POINT('',(169.026485,-70.030783,0.));
#563 = CIRCLE('',#564,2.000000361287);
#564 = AXIS2_PLACEMENT_3D('',#565,#566,#567);
#565 = CARTESIAN_POINT('',(168.34115081784,-71.90969718215,0.));
#566 = DIRECTION('',(-0.,0.,1.));
#567 = DIRECTION('',(0.342667029178,0.939456921372,0.));
#568 = ORIENTED_EDGE('',*,*,#569,.F.);
#569 = EDGE_CURVE('',#570,#561,#572,.T.);
#570 = VERTEX_POINT('',#571);
#571 = CARTESIAN_POINT('',(169.526075,-69.824048,0.));
#572 = CIRCLE('',#573,0.400002313482);
#573 = AXIS2_PLACEMENT_3D('',#574,#575,#576);
#574 = CARTESIAN_POINT('',(169.16355085916,-69.65499742145,0.));
#575 = DIRECTION('',(0.,0.,-1.));
#576 = DIRECTION('',(0.906305110275,-0.422624002027,0.));
#577 = ORIENTED_EDGE('',*,*,#578,.F.);
#578 = EDGE_CURVE('',#579,#570,#581,.T.);
#579 = VERTEX_POINT('',#580);
#580 = CARTESIAN_POINT('',(170.023371,-68.757593,0.));
#581 = LINE('',#582,#583);
#582 = CARTESIAN_POINT('',(170.023371,-68.757593,0.));
#583 = VECTOR('',#584,1.);
#584 = DIRECTION('',(-0.422618168497,-0.906307830517,0.));
#585 = ORIENTED_EDGE('',*,*,#586,.F.);
#586 = EDGE_CURVE('',#587,#579,#589,.T.);
#587 = VERTEX_POINT('',#588);
#588 = CARTESIAN_POINT('',(169.660848,-68.188546,0.));
#589 = CIRCLE('',#590,0.399995675766);
#590 = AXIS2_PLACEMENT_3D('',#591,#592,#593);
#591 = CARTESIAN_POINT('',(169.66085453087,-68.58854167571,0.));
#592 = DIRECTION('',(0.,0.,-1.));
#593 = DIRECTION('',(-1.632735831928E-05,0.999999999867,0.));
#594 = ORIENTED_EDGE('',*,*,#595,.F.);
#595 = EDGE_CURVE('',#596,#587,#598,.T.);
#596 = VERTEX_POINT('',#597);
#597 = CARTESIAN_POINT('',(165.76358,-68.188546,0.));
#598 = LINE('',#599,#600);
#599 = CARTESIAN_POINT('',(165.76358,-68.188546,0.));
#600 = VECTOR('',#601,1.);
#601 = DIRECTION('',(1.,0.,0.));
#602 = ORIENTED_EDGE('',*,*,#603,.F.);
#603 = EDGE_CURVE('',#604,#596,#606,.T.);
#604 = VERTEX_POINT('',#605);
#605 = CARTESIAN_POINT('',(163.694462,-69.637358,0.));
#606 = LINE('',#607,#608);
#607 = CARTESIAN_POINT('',(163.694462,-69.637358,0.));
#608 = VECTOR('',#609,1.);
#609 = DIRECTION('',(0.819152048204,0.57357643076,0.));
#610 = ORIENTED_EDGE('',*,*,#611,.F.);
#611 = EDGE_CURVE('',#612,#604,#614,.T.);
#612 = VERTEX_POINT('',#613);
#613 = CARTESIAN_POINT('',(163.465031,-69.709697,0.));
#614 = CIRCLE('',#615,0.400100202343);
#615 = AXIS2_PLACEMENT_3D('',#616,#617,#618);
#616 = CARTESIAN_POINT('',(163.46500009262,-69.30959679885,0.));
#617 = DIRECTION('',(0.,0.,1.));
#618 = DIRECTION('',(7.724908641495E-05,-0.999999997016,0.));
#619 = ORIENTED_EDGE('',*,*,#620,.F.);
#620 = EDGE_CURVE('',#122,#612,#621,.T.);
#621 = LINE('',#622,#623);
#622 = CARTESIAN_POINT('',(153.091151,-69.709697,0.));
#623 = VECTOR('',#624,1.);
#624 = DIRECTION('',(1.,0.,0.));
#625 = ORIENTED_EDGE('',*,*,#129,.F.);
#626 = FACE_BOUND('',#627,.F.);
#627 = EDGE_LOOP('',(#628));
#628 = ORIENTED_EDGE('',*,*,#629,.T.);
#629 = EDGE_CURVE('',#630,#630,#632,.T.);
#630 = VERTEX_POINT('',#631);
#631 = CARTESIAN_POINT('',(139.46,-93.22,0.));
#632 = CIRCLE('',#633,0.6);
#633 = AXIS2_PLACEMENT_3D('',#634,#635,#636);
#634 = CARTESIAN_POINT('',(139.46,-92.62,0.));
#635 = DIRECTION('',(-0.,0.,-1.));
#636 = DIRECTION('',(-0.,-1.,0.));
#637 = FACE_BOUND('',#638,.F.);
#638 = EDGE_LOOP('',(#639));
#639 = ORIENTED_EDGE('',*,*,#640,.T.);
#640 = EDGE_CURVE('',#641,#641,#643,.T.);
#641 = VERTEX_POINT('',#642);
#642 = CARTESIAN_POINT('',(165.5125,-92.47,0.));
#643 = CIRCLE('',#644,0.3);
#644 = AXIS2_PLACEMENT_3D('',#645,#646,#647);
#645 = CARTESIAN_POINT('',(165.5125,-92.17,0.));
#646 = DIRECTION('',(-0.,0.,-1.));
#647 = DIRECTION('',(-0.,-1.,0.));
#648 = FACE_BOUND('',#649,.F.);
#649 = EDGE_LOOP('',(#650));
#650 = ORIENTED_EDGE('',*,*,#651,.T.);
#651 = EDGE_CURVE('',#652,#652,#654,.T.);
#652 = VERTEX_POINT('',#653);
#653 = CARTESIAN_POINT('',(139.46,-85.22,0.));
#654 = CIRCLE('',#655,0.6);
#655 = AXIS2_PLACEMENT_3D('',#656,#657,#658);
#656 = CARTESIAN_POINT('',(139.46,-84.62,0.));
#657 = DIRECTION('',(-0.,0.,-1.));
#658 = DIRECTION('',(-0.,-1.,0.));
#659 = FACE_BOUND('',#660,.F.);
#660 = EDGE_LOOP('',(#661));
#661 = ORIENTED_EDGE('',*,*,#662,.T.);
#662 = EDGE_CURVE('',#663,#663,#665,.T.);
#663 = VERTEX_POINT('',#664);
#664 = CARTESIAN_POINT('',(165.5125,-86.69,0.));
#665 = CIRCLE('',#666,0.3);
#666 = AXIS2_PLACEMENT_3D('',#667,#668,#669);
#667 = CARTESIAN_POINT('',(165.5125,-86.39,0.));
#668 = DIRECTION('',(-0.,0.,-1.));
#669 = DIRECTION('',(-0.,-1.,0.));
#670 = PLANE('',#671);
#671 = AXIS2_PLACEMENT_3D('',#672,#673,#674);
#672 = CARTESIAN_POINT('',(0.,0.,0.));
#673 = DIRECTION('',(0.,0.,1.));
#674 = DIRECTION('',(1.,0.,-0.));
#675 = ADVANCED_FACE('',(#676,#1162,#1173,#1184,#1195),#1206,.T.);
#676 = FACE_BOUND('',#677,.T.);
#677 = EDGE_LOOP('',(#678,#679,#680,#688,#697,#705,#714,#723,#732,#740,
    #749,#757,#765,#774,#782,#790,#799,#807,#815,#824,#832,#841,#850,
    #859,#867,#876,#884,#892,#901,#909,#917,#926,#934,#942,#951,#959,
    #968,#977,#986,#994,#1003,#1011,#1019,#1028,#1036,#1044,#1053,#1061,
    #1069,#1078,#1086,#1095,#1104,#1113,#1121,#1130,#1138,#1146,#1155,
    #1161));
#678 = ORIENTED_EDGE('',*,*,#49,.F.);
#679 = ORIENTED_EDGE('',*,*,#91,.F.);
#680 = ORIENTED_EDGE('',*,*,#681,.F.);
#681 = EDGE_CURVE('',#682,#84,#684,.T.);
#682 = VERTEX_POINT('',#683);
#683 = CARTESIAN_POINT('',(136.521454,-68.188546,0.9378));
#684 = LINE('',#685,#686);
#685 = CARTESIAN_POINT('',(136.521454,-68.188546,0.9378));
#686 = VECTOR('',#687,1.);
#687 = DIRECTION('',(1.,0.,0.));
#688 = ORIENTED_EDGE('',*,*,#689,.F.);
#689 = EDGE_CURVE('',#690,#682,#692,.T.);
#690 = VERTEX_POINT('',#691);
#691 = CARTESIAN_POINT('',(136.158931,-68.757593,0.9378));
#692 = CIRCLE('',#693,0.399999237686);
#693 = AXIS2_PLACEMENT_3D('',#694,#695,#696);
#694 = CARTESIAN_POINT('',(136.5214530603,-68.58854523768,0.9378));
#695 = DIRECTION('',(0.,0.,-1.));
#696 = DIRECTION('',(-0.906306877981,-0.422620211212,-0.));
#697 = ORIENTED_EDGE('',*,*,#698,.F.);
#698 = EDGE_CURVE('',#699,#690,#701,.T.);
#699 = VERTEX_POINT('',#700);
#700 = CARTESIAN_POINT('',(136.656227,-69.824048,0.9378));
#701 = LINE('',#702,#703);
#702 = CARTESIAN_POINT('',(136.656227,-69.824048,0.9378));
#703 = VECTOR('',#704,1.);
#704 = DIRECTION('',(-0.422618168497,0.906307830517,0.));
#705 = ORIENTED_EDGE('',*,*,#706,.F.);
#706 = EDGE_CURVE('',#707,#699,#709,.T.);
#707 = VERTEX_POINT('',#708);
#708 = CARTESIAN_POINT('',(137.155817,-70.030783,0.9378));
#709 = CIRCLE('',#710,0.399999723522);
#710 = AXIS2_PLACEMENT_3D('',#711,#712,#713);
#711 = CARTESIAN_POINT('',(137.01874979721,-69.6550006684,0.9378));
#712 = DIRECTION('',(0.,0.,-1.));
#713 = DIRECTION('',(0.342668243818,-0.939456478331,0.));
#714 = ORIENTED_EDGE('',*,*,#715,.F.);
#715 = EDGE_CURVE('',#716,#707,#718,.T.);
#716 = VERTEX_POINT('',#717);
#717 = CARTESIAN_POINT('',(135.962237,-71.224363,0.9378));
#718 = CIRCLE('',#719,2.000000361287);
#719 = AXIS2_PLACEMENT_3D('',#720,#721,#722);
#720 = CARTESIAN_POINT('',(137.84115118215,-71.90969718215,0.9378));
#721 = DIRECTION('',(0.,-0.,1.));
#722 = DIRECTION('',(-0.939456921372,0.342667029178,0.));
#723 = ORIENTED_EDGE('',*,*,#724,.F.);
#724 = EDGE_CURVE('',#725,#716,#727,.T.);
#725 = VERTEX_POINT('',#726);
#726 = CARTESIAN_POINT('',(135.755502,-70.724773,0.9378));
#727 = CIRCLE('',#728,0.399999723522);
#728 = AXIS2_PLACEMENT_3D('',#729,#730,#731);
#729 = CARTESIAN_POINT('',(135.5864546684,-71.08729579721,0.9378));
#730 = DIRECTION('',(0.,0.,-1.));
#731 = DIRECTION('',(0.422618621096,0.906307619466,0.));
#732 = ORIENTED_EDGE('',*,*,#733,.F.);
#733 = EDGE_CURVE('',#734,#725,#736,.T.);
#734 = VERTEX_POINT('',#735);
#735 = CARTESIAN_POINT('',(134.689047,-70.227477,0.9378));
#736 = LINE('',#737,#738);
#737 = CARTESIAN_POINT('',(134.689047,-70.227477,0.9378));
#738 = VECTOR('',#739,1.);
#739 = DIRECTION('',(0.906307830517,-0.422618168497,0.));
#740 = ORIENTED_EDGE('',*,*,#741,.F.);
#741 = EDGE_CURVE('',#742,#734,#744,.T.);
#742 = VERTEX_POINT('',#743);
#743 = CARTESIAN_POINT('',(134.12,-70.59,0.9378));
#744 = CIRCLE('',#745,0.399999237686);
#745 = AXIS2_PLACEMENT_3D('',#746,#747,#748);
#746 = CARTESIAN_POINT('',(134.51999923768,-70.5899990603,0.9378));
#747 = DIRECTION('',(0.,0.,-1.));
#748 = DIRECTION('',(-0.999999999997,-2.349250430494E-06,-0.));
#749 = ORIENTED_EDGE('',*,*,#750,.F.);
#750 = EDGE_CURVE('',#751,#742,#753,.T.);
#751 = VERTEX_POINT('',#752);
#752 = CARTESIAN_POINT('',(134.12,-74.487268,0.9378));
#753 = LINE('',#754,#755);
#754 = CARTESIAN_POINT('',(134.12,-74.487268,0.9378));
#755 = VECTOR('',#756,1.);
#756 = DIRECTION('',(0.,1.,0.));
#757 = ORIENTED_EDGE('',*,*,#758,.F.);
#758 = EDGE_CURVE('',#759,#751,#761,.T.);
#759 = VERTEX_POINT('',#760);
#760 = CARTESIAN_POINT('',(135.568812,-76.556386,0.9378));
#761 = LINE('',#762,#763);
#762 = CARTESIAN_POINT('',(135.568812,-76.556386,0.9378));
#763 = VECTOR('',#764,1.);
#764 = DIRECTION('',(-0.57357643076,0.819152048204,0.));
#765 = ORIENTED_EDGE('',*,*,#766,.F.);
#766 = EDGE_CURVE('',#767,#759,#769,.T.);
#767 = VERTEX_POINT('',#768);
#768 = CARTESIAN_POINT('',(135.641151,-76.785817,0.9378));
#769 = CIRCLE('',#770,0.39999571705);
#770 = AXIS2_PLACEMENT_3D('',#771,#772,#773);
#771 = CARTESIAN_POINT('',(135.24115528295,-76.7858149638,0.9378));
#772 = DIRECTION('',(0.,0.,1.));
#773 = DIRECTION('',(0.999999999987,-5.090535751691E-06,0.));
#774 = ORIENTED_EDGE('',*,*,#775,.F.);
#775 = EDGE_CURVE('',#776,#767,#778,.T.);
#776 = VERTEX_POINT('',#777);
#777 = CARTESIAN_POINT('',(135.641151,-87.159697,0.9378));
#778 = LINE('',#779,#780);
#779 = CARTESIAN_POINT('',(135.641151,-87.159697,0.9378));
#780 = VECTOR('',#781,1.);
#781 = DIRECTION('',(0.,1.,0.));
#782 = ORIENTED_EDGE('',*,*,#783,.F.);
#783 = EDGE_CURVE('',#784,#776,#786,.T.);
#784 = VERTEX_POINT('',#785);
#785 = CARTESIAN_POINT('',(135.641151,-97.533577,0.9378));
#786 = LINE('',#787,#788);
#787 = CARTESIAN_POINT('',(135.641151,-97.533577,0.9378));
#788 = VECTOR('',#789,1.);
#789 = DIRECTION('',(0.,1.,0.));
#790 = ORIENTED_EDGE('',*,*,#791,.F.);
#791 = EDGE_CURVE('',#792,#784,#794,.T.);
#792 = VERTEX_POINT('',#793);
#793 = CARTESIAN_POINT('',(135.568812,-97.763008,0.9378));
#794 = CIRCLE('',#795,0.39999571705);
#795 = AXIS2_PLACEMENT_3D('',#796,#797,#798);
#796 = CARTESIAN_POINT('',(135.24115528295,-97.53357903619,0.9378));
#797 = DIRECTION('',(0.,0.,1.));
#798 = DIRECTION('',(0.819150563564,-0.573578551039,0.));
#799 = ORIENTED_EDGE('',*,*,#800,.F.);
#800 = EDGE_CURVE('',#801,#792,#803,.T.);
#801 = VERTEX_POINT('',#802);
#802 = CARTESIAN_POINT('',(134.12,-99.832126,0.9378));
#803 = LINE('',#804,#805);
#804 = CARTESIAN_POINT('',(134.12,-99.832126,0.9378));
#805 = VECTOR('',#806,1.);
#806 = DIRECTION('',(0.57357643076,0.819152048204,0.));
#807 = ORIENTED_EDGE('',*,*,#808,.F.);
#808 = EDGE_CURVE('',#809,#801,#811,.T.);
#809 = VERTEX_POINT('',#810);
#810 = CARTESIAN_POINT('',(134.12,-103.729394,0.9378));
#811 = LINE('',#812,#813);
#812 = CARTESIAN_POINT('',(134.12,-103.729394,0.9378));
#813 = VECTOR('',#814,1.);
#814 = DIRECTION('',(0.,1.,0.));
#815 = ORIENTED_EDGE('',*,*,#816,.F.);
#816 = EDGE_CURVE('',#817,#809,#819,.T.);
#817 = VERTEX_POINT('',#818);
#818 = CARTESIAN_POINT('',(134.689047,-104.091917,0.9378));
#819 = CIRCLE('',#820,0.399999237686);
#820 = AXIS2_PLACEMENT_3D('',#821,#822,#823);
#821 = CARTESIAN_POINT('',(134.51999923768,-103.7293949396,0.9378));
#822 = DIRECTION('',(0.,0.,-1.));
#823 = DIRECTION('',(0.422620211212,-0.906306877981,0.));
#824 = ORIENTED_EDGE('',*,*,#825,.F.);
#825 = EDGE_CURVE('',#826,#817,#828,.T.);
#826 = VERTEX_POINT('',#827);
#827 = CARTESIAN_POINT('',(135.755502,-103.594621,0.9378));
#828 = LINE('',#829,#830);
#829 = CARTESIAN_POINT('',(135.755502,-103.594621,0.9378));
#830 = VECTOR('',#831,1.);
#831 = DIRECTION('',(-0.906307830517,-0.422618168497,0.));
#832 = ORIENTED_EDGE('',*,*,#833,.F.);
#833 = EDGE_CURVE('',#834,#826,#836,.T.);
#834 = VERTEX_POINT('',#835);
#835 = CARTESIAN_POINT('',(135.962237,-103.095031,0.9378));
#836 = CIRCLE('',#837,0.399999723522);
#837 = AXIS2_PLACEMENT_3D('',#838,#839,#840);
#838 = CARTESIAN_POINT('',(135.5864546684,-103.2320982027,0.9378));
#839 = DIRECTION('',(0.,0.,-1.));
#840 = DIRECTION('',(0.939456478331,0.342668243818,0.));
#841 = ORIENTED_EDGE('',*,*,#842,.F.);
#842 = EDGE_CURVE('',#843,#834,#845,.T.);
#843 = VERTEX_POINT('',#844);
#844 = CARTESIAN_POINT('',(137.155817,-104.288611,0.9378));
#845 = CIRCLE('',#846,2.000000361287);
#846 = AXIS2_PLACEMENT_3D('',#847,#848,#849);
#847 = CARTESIAN_POINT('',(137.84115118215,-102.4096968178,0.9378));
#848 = DIRECTION('',(0.,0.,1.));
#849 = DIRECTION('',(-0.342667029178,-0.939456921372,0.));
#850 = ORIENTED_EDGE('',*,*,#851,.F.);
#851 = EDGE_CURVE('',#852,#843,#854,.T.);
#852 = VERTEX_POINT('',#853);
#853 = CARTESIAN_POINT('',(136.656227,-104.495346,0.9378));
#854 = CIRCLE('',#855,0.399999723522);
#855 = AXIS2_PLACEMENT_3D('',#856,#857,#858);
#856 = CARTESIAN_POINT('',(137.01874979721,-104.6643933315,0.9378));
#857 = DIRECTION('',(0.,0.,-1.));
#858 = DIRECTION('',(-0.906307619466,0.422618621096,0.));
#859 = ORIENTED_EDGE('',*,*,#860,.F.);
#860 = EDGE_CURVE('',#861,#852,#863,.T.);
#861 = VERTEX_POINT('',#862);
#862 = CARTESIAN_POINT('',(136.158931,-105.561801,0.9378));
#863 = LINE('',#864,#865);
#864 = CARTESIAN_POINT('',(136.158931,-105.561801,0.9378));
#865 = VECTOR('',#866,1.);
#866 = DIRECTION('',(0.422618168497,0.906307830517,0.));
#867 = ORIENTED_EDGE('',*,*,#868,.F.);
#868 = EDGE_CURVE('',#869,#861,#871,.T.);
#869 = VERTEX_POINT('',#870);
#870 = CARTESIAN_POINT('',(136.521454,-106.130848,0.9378));
#871 = CIRCLE('',#872,0.399999237686);
#872 = AXIS2_PLACEMENT_3D('',#873,#874,#875);
#873 = CARTESIAN_POINT('',(136.5214530603,-105.7308487623,0.9378));
#874 = DIRECTION('',(0.,0.,-1.));
#875 = DIRECTION('',(2.349250394966E-06,-0.999999999997,0.));
#876 = ORIENTED_EDGE('',*,*,#877,.F.);
#877 = EDGE_CURVE('',#878,#869,#880,.T.);
#878 = VERTEX_POINT('',#879);
#879 = CARTESIAN_POINT('',(140.418722,-106.130848,0.9378));
#880 = LINE('',#881,#882);
#881 = CARTESIAN_POINT('',(140.418722,-106.130848,0.9378));
#882 = VECTOR('',#883,1.);
#883 = DIRECTION('',(-1.,0.,0.));
#884 = ORIENTED_EDGE('',*,*,#885,.F.);
#885 = EDGE_CURVE('',#886,#878,#888,.T.);
#886 = VERTEX_POINT('',#887);
#887 = CARTESIAN_POINT('',(142.48784,-104.682036,0.9378));
#888 = LINE('',#889,#890);
#889 = CARTESIAN_POINT('',(142.48784,-104.682036,0.9378));
#890 = VECTOR('',#891,1.);
#891 = DIRECTION('',(-0.819152048204,-0.57357643076,0.));
#892 = ORIENTED_EDGE('',*,*,#893,.F.);
#893 = EDGE_CURVE('',#894,#886,#896,.T.);
#894 = VERTEX_POINT('',#895);
#895 = CARTESIAN_POINT('',(142.717271,-104.609697,0.9378));
#896 = CIRCLE('',#897,0.39999571705);
#897 = AXIS2_PLACEMENT_3D('',#898,#899,#900);
#898 = CARTESIAN_POINT('',(142.7172689638,-105.009692717,0.9378));
#899 = DIRECTION('',(0.,0.,1.));
#900 = DIRECTION('',(5.090535929331E-06,0.999999999987,-0.));
#901 = ORIENTED_EDGE('',*,*,#902,.F.);
#902 = EDGE_CURVE('',#903,#894,#905,.T.);
#903 = VERTEX_POINT('',#904);
#904 = CARTESIAN_POINT('',(153.091151,-104.609697,0.9378));
#905 = LINE('',#906,#907);
#906 = CARTESIAN_POINT('',(153.091151,-104.609697,0.9378));
#907 = VECTOR('',#908,1.);
#908 = DIRECTION('',(-1.,0.,0.));
#909 = ORIENTED_EDGE('',*,*,#910,.F.);
#910 = EDGE_CURVE('',#911,#903,#913,.T.);
#911 = VERTEX_POINT('',#912);
#912 = CARTESIAN_POINT('',(163.465031,-104.609697,0.9378));
#913 = LINE('',#914,#915);
#914 = CARTESIAN_POINT('',(163.465031,-104.609697,0.9378));
#915 = VECTOR('',#916,1.);
#916 = DIRECTION('',(-1.,0.,0.));
#917 = ORIENTED_EDGE('',*,*,#918,.F.);
#918 = EDGE_CURVE('',#919,#911,#921,.T.);
#919 = VERTEX_POINT('',#920);
#920 = CARTESIAN_POINT('',(163.694462,-104.682036,0.9378));
#921 = CIRCLE('',#922,0.39988509768);
#922 = AXIS2_PLACEMENT_3D('',#923,#924,#925);
#923 = CARTESIAN_POINT('',(163.46506791472,-105.0095820959,0.9378));
#924 = DIRECTION('',(0.,0.,1.));
#925 = DIRECTION('',(0.573649997467,0.819100531319,-0.));
#926 = ORIENTED_EDGE('',*,*,#927,.F.);
#927 = EDGE_CURVE('',#928,#919,#930,.T.);
#928 = VERTEX_POINT('',#929);
#929 = CARTESIAN_POINT('',(165.76358,-106.130848,0.9378));
#930 = LINE('',#931,#932);
#931 = CARTESIAN_POINT('',(165.76358,-106.130848,0.9378));
#932 = VECTOR('',#933,1.);
#933 = DIRECTION('',(-0.819152048204,0.57357643076,0.));
#934 = ORIENTED_EDGE('',*,*,#935,.F.);
#935 = EDGE_CURVE('',#936,#928,#938,.T.);
#936 = VERTEX_POINT('',#937);
#937 = CARTESIAN_POINT('',(169.660848,-106.130848,0.9378));
#938 = LINE('',#939,#940);
#939 = CARTESIAN_POINT('',(169.660848,-106.130848,0.9378));
#940 = VECTOR('',#941,1.);
#941 = DIRECTION('',(-1.,0.,0.));
#942 = ORIENTED_EDGE('',*,*,#943,.F.);
#943 = EDGE_CURVE('',#944,#936,#946,.T.);
#944 = VERTEX_POINT('',#945);
#945 = CARTESIAN_POINT('',(170.023371,-105.561801,0.9378));
#946 = CIRCLE('',#947,0.39994589786);
#947 = AXIS2_PLACEMENT_3D('',#948,#949,#950);
#948 = CARTESIAN_POINT('',(169.6609326805,-105.7309021111,0.9378));
#949 = DIRECTION('',(0.,0.,-1.));
#950 = DIRECTION('',(0.90621836962,0.42280996507,0.));
#951 = ORIENTED_EDGE('',*,*,#952,.F.);
#952 = EDGE_CURVE('',#953,#944,#955,.T.);
#953 = VERTEX_POINT('',#954);
#954 = CARTESIAN_POINT('',(169.526075,-104.495346,0.9378));
#955 = LINE('',#956,#957);
#956 = CARTESIAN_POINT('',(169.526075,-104.495346,0.9378));
#957 = VECTOR('',#958,1.);
#958 = DIRECTION('',(0.422618168497,-0.906307830517,0.));
#959 = ORIENTED_EDGE('',*,*,#960,.F.);
#960 = EDGE_CURVE('',#961,#953,#963,.T.);
#961 = VERTEX_POINT('',#962);
#962 = CARTESIAN_POINT('',(169.026485,-104.288611,0.9378));
#963 = CIRCLE('',#964,0.400002313482);
#964 = AXIS2_PLACEMENT_3D('',#965,#966,#967);
#965 = CARTESIAN_POINT('',(169.16355085916,-104.6643965785,0.9378));
#966 = DIRECTION('',(0.,0.,-1.));
#967 = DIRECTION('',(-0.342662666062,0.939458512808,0.));
#968 = ORIENTED_EDGE('',*,*,#969,.F.);
#969 = EDGE_CURVE('',#970,#961,#972,.T.);
#970 = VERTEX_POINT('',#971);
#971 = CARTESIAN_POINT('',(170.220065,-103.095031,0.9378));
#972 = CIRCLE('',#973,2.000000361287);
#973 = AXIS2_PLACEMENT_3D('',#974,#975,#976);
#974 = CARTESIAN_POINT('',(168.34115081784,-102.4096968178,0.9378));
#975 = DIRECTION('',(0.,0.,1.));
#976 = DIRECTION('',(0.939456921372,-0.342667029178,0.));
#977 = ORIENTED_EDGE('',*,*,#978,.F.);
#978 = EDGE_CURVE('',#979,#970,#981,.T.);
#979 = VERTEX_POINT('',#980);
#980 = CARTESIAN_POINT('',(170.4268,-103.594621,0.9378));
#981 = CIRCLE('',#982,0.400002313482);
#982 = AXIS2_PLACEMENT_3D('',#983,#984,#985);
#983 = CARTESIAN_POINT('',(170.59585057854,-103.2320968591,0.9378));
#984 = DIRECTION('',(0.,0.,-1.));
#985 = DIRECTION('',(-0.422624002027,-0.906305110275,-0.));
#986 = ORIENTED_EDGE('',*,*,#987,.F.);
#987 = EDGE_CURVE('',#988,#979,#990,.T.);
#988 = VERTEX_POINT('',#989);
#989 = CARTESIAN_POINT('',(171.493255,-104.091917,0.9378));
#990 = LINE('',#991,#992);
#991 = CARTESIAN_POINT('',(171.493255,-104.091917,0.9378));
#992 = VECTOR('',#993,1.);
#993 = DIRECTION('',(-0.906307830517,0.422618168497,0.));
#994 = ORIENTED_EDGE('',*,*,#995,.F.);
#995 = EDGE_CURVE('',#996,#988,#998,.T.);
#996 = VERTEX_POINT('',#997);
#997 = CARTESIAN_POINT('',(172.062302,-103.729394,0.9378));
#998 = CIRCLE('',#999,0.400022563934);
#999 = AXIS2_PLACEMENT_3D('',#1000,#1001,#1002);
#1000 = CARTESIAN_POINT('',(171.66227943765,-103.7293583273,0.9378));
#1001 = DIRECTION('',(0.,0.,-1.));
#1002 = DIRECTION('',(0.999999996024,-8.917665538239E-05,0.));
#1003 = ORIENTED_EDGE('',*,*,#1004,.F.);
#1004 = EDGE_CURVE('',#1005,#996,#1007,.T.);
#1005 = VERTEX_POINT('',#1006);
#1006 = CARTESIAN_POINT('',(172.062302,-99.832126,0.9378));
#1007 = LINE('',#1008,#1009);
#1008 = CARTESIAN_POINT('',(172.062302,-99.832126,0.9378));
#1009 = VECTOR('',#1010,1.);
#1010 = DIRECTION('',(0.,-1.,0.));
#1011 = ORIENTED_EDGE('',*,*,#1012,.F.);
#1012 = EDGE_CURVE('',#1013,#1005,#1015,.T.);
#1013 = VERTEX_POINT('',#1014);
#1014 = CARTESIAN_POINT('',(170.61349,-97.763008,0.9378));
#1015 = LINE('',#1016,#1017);
#1016 = CARTESIAN_POINT('',(170.61349,-97.763008,0.9378));
#1017 = VECTOR('',#1018,1.);
#1018 = DIRECTION('',(0.57357643076,-0.819152048204,0.));
#1019 = ORIENTED_EDGE('',*,*,#1020,.F.);
#1020 = EDGE_CURVE('',#1021,#1013,#1023,.T.);
#1021 = VERTEX_POINT('',#1022);
#1022 = CARTESIAN_POINT('',(170.541151,-97.533577,0.9378));
#1023 = CIRCLE('',#1024,0.400100202344);
#1024 = AXIS2_PLACEMENT_3D('',#1025,#1026,#1027);
#1025 = CARTESIAN_POINT('',(170.94125120115,-97.53354609262,0.9378));
#1026 = DIRECTION('',(0.,0.,1.));
#1027 = DIRECTION('',(-0.999999997016,-7.724908645043E-05,0.));
#1028 = ORIENTED_EDGE('',*,*,#1029,.F.);
#1029 = EDGE_CURVE('',#1030,#1021,#1032,.T.);
#1030 = VERTEX_POINT('',#1031);
#1031 = CARTESIAN_POINT('',(170.541151,-87.159697,0.9378));
#1032 = LINE('',#1033,#1034);
#1033 = CARTESIAN_POINT('',(170.541151,-87.159697,0.9378));
#1034 = VECTOR('',#1035,1.);
#1035 = DIRECTION('',(0.,-1.,0.));
#1036 = ORIENTED_EDGE('',*,*,#1037,.F.);
#1037 = EDGE_CURVE('',#1038,#1030,#1040,.T.);
#1038 = VERTEX_POINT('',#1039);
#1039 = CARTESIAN_POINT('',(170.541151,-76.785817,0.9378));
#1040 = LINE('',#1041,#1042);
#1041 = CARTESIAN_POINT('',(170.541151,-76.785817,0.9378));
#1042 = VECTOR('',#1043,1.);
#1043 = DIRECTION('',(0.,-1.,0.));
#1044 = ORIENTED_EDGE('',*,*,#1045,.F.);
#1045 = EDGE_CURVE('',#1046,#1038,#1048,.T.);
#1046 = VERTEX_POINT('',#1047);
#1047 = CARTESIAN_POINT('',(170.61349,-76.556386,0.9378));
#1048 = CIRCLE('',#1049,0.39988509768);
#1049 = AXIS2_PLACEMENT_3D('',#1050,#1051,#1052);
#1050 = CARTESIAN_POINT('',(170.94103609597,-76.78578008527,0.9378));
#1051 = DIRECTION('',(0.,0.,1.));
#1052 = DIRECTION('',(-0.819100531319,0.573649997467,0.));
#1053 = ORIENTED_EDGE('',*,*,#1054,.F.);
#1054 = EDGE_CURVE('',#1055,#1046,#1057,.T.);
#1055 = VERTEX_POINT('',#1056);
#1056 = CARTESIAN_POINT('',(172.062302,-74.487268,0.9378));
#1057 = LINE('',#1058,#1059);
#1058 = CARTESIAN_POINT('',(172.062302,-74.487268,0.9378));
#1059 = VECTOR('',#1060,1.);
#1060 = DIRECTION('',(-0.57357643076,-0.819152048204,0.));
#1061 = ORIENTED_EDGE('',*,*,#1062,.F.);
#1062 = EDGE_CURVE('',#1063,#1055,#1065,.T.);
#1063 = VERTEX_POINT('',#1064);
#1064 = CARTESIAN_POINT('',(172.062302,-70.59,0.9378));
#1065 = LINE('',#1066,#1067);
#1066 = CARTESIAN_POINT('',(172.062302,-70.59,0.9378));
#1067 = VECTOR('',#1068,1.);
#1068 = DIRECTION('',(0.,-1.,0.));
#1069 = ORIENTED_EDGE('',*,*,#1070,.F.);
#1070 = EDGE_CURVE('',#1071,#1063,#1073,.T.);
#1071 = VERTEX_POINT('',#1072);
#1072 = CARTESIAN_POINT('',(171.493255,-70.227477,0.9378));
#1073 = CIRCLE('',#1074,0.39994589786);
#1074 = AXIS2_PLACEMENT_3D('',#1075,#1076,#1077);
#1075 = CARTESIAN_POINT('',(171.6623561111,-70.58991531949,0.9378));
#1076 = DIRECTION('',(0.,0.,-1.));
#1077 = DIRECTION('',(-0.42280996507,0.90621836962,0.));
#1078 = ORIENTED_EDGE('',*,*,#1079,.F.);
#1079 = EDGE_CURVE('',#1080,#1071,#1082,.T.);
#1080 = VERTEX_POINT('',#1081);
#1081 = CARTESIAN_POINT('',(170.4268,-70.724773,0.9378));
#1082 = LINE('',#1083,#1084);
#1083 = CARTESIAN_POINT('',(170.4268,-70.724773,0.9378));
#1084 = VECTOR('',#1085,1.);
#1085 = DIRECTION('',(0.906307830517,0.422618168497,0.));
#1086 = ORIENTED_EDGE('',*,*,#1087,.F.);
#1087 = EDGE_CURVE('',#1088,#1080,#1090,.T.);
#1088 = VERTEX_POINT('',#1089);
#1089 = CARTESIAN_POINT('',(170.220065,-71.224363,0.9378));
#1090 = CIRCLE('',#1091,0.400002313482);
#1091 = AXIS2_PLACEMENT_3D('',#1092,#1093,#1094);
#1092 = CARTESIAN_POINT('',(170.59585057854,-71.08729714083,0.9378));
#1093 = DIRECTION('',(0.,0.,-1.));
#1094 = DIRECTION('',(-0.939458512808,-0.342662666062,-0.));
#1095 = ORIENTED_EDGE('',*,*,#1096,.F.);
#1096 = EDGE_CURVE('',#1097,#1088,#1099,.T.);
#1097 = VERTEX_POINT('',#1098);
#1098 = CARTESIAN_POINT('',(169.026485,-70.030783,0.9378));
#1099 = CIRCLE('',#1100,2.000000361287);
#1100 = AXIS2_PLACEMENT_3D('',#1101,#1102,#1103);
#1101 = CARTESIAN_POINT('',(168.34115081784,-71.90969718215,0.9378));
#1102 = DIRECTION('',(-0.,0.,1.));
#1103 = DIRECTION('',(0.342667029178,0.939456921372,0.));
#1104 = ORIENTED_EDGE('',*,*,#1105,.F.);
#1105 = EDGE_CURVE('',#1106,#1097,#1108,.T.);
#1106 = VERTEX_POINT('',#1107);
#1107 = CARTESIAN_POINT('',(169.526075,-69.824048,0.9378));
#1108 = CIRCLE('',#1109,0.400002313482);
#1109 = AXIS2_PLACEMENT_3D('',#1110,#1111,#1112);
#1110 = CARTESIAN_POINT('',(169.16355085916,-69.65499742145,0.9378));
#1111 = DIRECTION('',(0.,0.,-1.));
#1112 = DIRECTION('',(0.906305110275,-0.422624002027,0.));
#1113 = ORIENTED_EDGE('',*,*,#1114,.F.);
#1114 = EDGE_CURVE('',#1115,#1106,#1117,.T.);
#1115 = VERTEX_POINT('',#1116);
#1116 = CARTESIAN_POINT('',(170.023371,-68.757593,0.9378));
#1117 = LINE('',#1118,#1119);
#1118 = CARTESIAN_POINT('',(170.023371,-68.757593,0.9378));
#1119 = VECTOR('',#1120,1.);
#1120 = DIRECTION('',(-0.422618168497,-0.906307830517,0.));
#1121 = ORIENTED_EDGE('',*,*,#1122,.F.);
#1122 = EDGE_CURVE('',#1123,#1115,#1125,.T.);
#1123 = VERTEX_POINT('',#1124);
#1124 = CARTESIAN_POINT('',(169.660848,-68.188546,0.9378));
#1125 = CIRCLE('',#1126,0.399995675766);
#1126 = AXIS2_PLACEMENT_3D('',#1127,#1128,#1129);
#1127 = CARTESIAN_POINT('',(169.66085453087,-68.58854167571,0.9378));
#1128 = DIRECTION('',(0.,0.,-1.));
#1129 = DIRECTION('',(-1.632735831928E-05,0.999999999867,0.));
#1130 = ORIENTED_EDGE('',*,*,#1131,.F.);
#1131 = EDGE_CURVE('',#1132,#1123,#1134,.T.);
#1132 = VERTEX_POINT('',#1133);
#1133 = CARTESIAN_POINT('',(165.76358,-68.188546,0.9378));
#1134 = LINE('',#1135,#1136);
#1135 = CARTESIAN_POINT('',(165.76358,-68.188546,0.9378));
#1136 = VECTOR('',#1137,1.);
#1137 = DIRECTION('',(1.,0.,0.));
#1138 = ORIENTED_EDGE('',*,*,#1139,.F.);
#1139 = EDGE_CURVE('',#1140,#1132,#1142,.T.);
#1140 = VERTEX_POINT('',#1141);
#1141 = CARTESIAN_POINT('',(163.694462,-69.637358,0.9378));
#1142 = LINE('',#1143,#1144);
#1143 = CARTESIAN_POINT('',(163.694462,-69.637358,0.9378));
#1144 = VECTOR('',#1145,1.);
#1145 = DIRECTION('',(0.819152048204,0.57357643076,0.));
#1146 = ORIENTED_EDGE('',*,*,#1147,.F.);
#1147 = EDGE_CURVE('',#1148,#1140,#1150,.T.);
#1148 = VERTEX_POINT('',#1149);
#1149 = CARTESIAN_POINT('',(163.465031,-69.709697,0.9378));
#1150 = CIRCLE('',#1151,0.400100202343);
#1151 = AXIS2_PLACEMENT_3D('',#1152,#1153,#1154);
#1152 = CARTESIAN_POINT('',(163.46500009262,-69.30959679885,0.9378));
#1153 = DIRECTION('',(0.,0.,1.));
#1154 = DIRECTION('',(7.724908641495E-05,-0.999999997016,0.));
#1155 = ORIENTED_EDGE('',*,*,#1156,.F.);
#1156 = EDGE_CURVE('',#114,#1148,#1157,.T.);
#1157 = LINE('',#1158,#1159);
#1158 = CARTESIAN_POINT('',(153.091151,-69.709697,0.9378));
#1159 = VECTOR('',#1160,1.);
#1160 = DIRECTION('',(1.,0.,0.));
#1161 = ORIENTED_EDGE('',*,*,#113,.F.);
#1162 = FACE_BOUND('',#1163,.T.);
#1163 = EDGE_LOOP('',(#1164));
#1164 = ORIENTED_EDGE('',*,*,#1165,.T.);
#1165 = EDGE_CURVE('',#1166,#1166,#1168,.T.);
#1166 = VERTEX_POINT('',#1167);
#1167 = CARTESIAN_POINT('',(139.46,-93.22,0.9378));
#1168 = CIRCLE('',#1169,0.6);
#1169 = AXIS2_PLACEMENT_3D('',#1170,#1171,#1172);
#1170 = CARTESIAN_POINT('',(139.46,-92.62,0.9378));
#1171 = DIRECTION('',(-0.,0.,-1.));
#1172 = DIRECTION('',(-0.,-1.,0.));
#1173 = FACE_BOUND('',#1174,.T.);
#1174 = EDGE_LOOP('',(#1175));
#1175 = ORIENTED_EDGE('',*,*,#1176,.T.);
#1176 = EDGE_CURVE('',#1177,#1177,#1179,.T.);
#1177 = VERTEX_POINT('',#1178);
#1178 = CARTESIAN_POINT('',(165.5125,-92.47,0.9378));
#1179 = CIRCLE('',#1180,0.3);
#1180 = AXIS2_PLACEMENT_3D('',#1181,#1182,#1183);
#1181 = CARTESIAN_POINT('',(165.5125,-92.17,0.9378));
#1182 = DIRECTION('',(-0.,0.,-1.));
#1183 = DIRECTION('',(-0.,-1.,0.));
#1184 = FACE_BOUND('',#1185,.T.);
#1185 = EDGE_LOOP('',(#1186));
#1186 = ORIENTED_EDGE('',*,*,#1187,.T.);
#1187 = EDGE_CURVE('',#1188,#1188,#1190,.T.);
#1188 = VERTEX_POINT('',#1189);
#1189 = CARTESIAN_POINT('',(139.46,-85.22,0.9378));
#1190 = CIRCLE('',#1191,0.6);
#1191 = AXIS2_PLACEMENT_3D('',#1192,#1193,#1194);
#1192 = CARTESIAN_POINT('',(139.46,-84.62,0.9378));
#1193 = DIRECTION('',(-0.,0.,-1.));
#1194 = DIRECTION('',(-0.,-1.,0.));
#1195 = FACE_BOUND('',#1196,.T.);
#1196 = EDGE_LOOP('',(#1197));
#1197 = ORIENTED_EDGE('',*,*,#1198,.T.);
#1198 = EDGE_CURVE('',#1199,#1199,#1201,.T.);
#1199 = VERTEX_POINT('',#1200);
#1200 = CARTESIAN_POINT('',(165.5125,-86.69,0.9378));
#1201 = CIRCLE('',#1202,0.3);
#1202 = AXIS2_PLACEMENT_3D('',#1203,#1204,#1205);
#1203 = CARTESIAN_POINT('',(165.5125,-86.39,0.9378));
#1204 = DIRECTION('',(-0.,0.,-1.));
#1205 = DIRECTION('',(-0.,-1.,0.));
#1206 = PLANE('',#1207);
#1207 = AXIS2_PLACEMENT_3D('',#1208,#1209,#1210);
#1208 = CARTESIAN_POINT('',(0.,0.,0.9378));
#1209 = DIRECTION('',(0.,0.,1.));
#1210 = DIRECTION('',(1.,0.,-0.));
#1211 = ADVANCED_FACE('',(#1212),#1223,.T.);
#1212 = FACE_BOUND('',#1213,.T.);
#1213 = EDGE_LOOP('',(#1214,#1220,#1221,#1222));
#1214 = ORIENTED_EDGE('',*,*,#1215,.T.);
#1215 = EDGE_CURVE('',#146,#682,#1216,.T.);
#1216 = LINE('',#1217,#1218);
#1217 = CARTESIAN_POINT('',(136.521454,-68.188546,0.));
#1218 = VECTOR('',#1219,1.);
#1219 = DIRECTION('',(0.,0.,1.));
#1220 = ORIENTED_EDGE('',*,*,#681,.T.);
#1221 = ORIENTED_EDGE('',*,*,#81,.F.);
#1222 = ORIENTED_EDGE('',*,*,#145,.F.);
#1223 = PLANE('',#1224);
#1224 = AXIS2_PLACEMENT_3D('',#1225,#1226,#1227);
#1225 = CARTESIAN_POINT('',(136.521454,-68.188546,0.));
#1226 = DIRECTION('',(0.,1.,0.));
#1227 = DIRECTION('',(1.,0.,0.));
#1228 = ADVANCED_FACE('',(#1229),#1240,.T.);
#1229 = FACE_BOUND('',#1230,.T.);
#1230 = EDGE_LOOP('',(#1231,#1232,#1233,#1239));
#1231 = ORIENTED_EDGE('',*,*,#121,.T.);
#1232 = ORIENTED_EDGE('',*,*,#1156,.T.);
#1233 = ORIENTED_EDGE('',*,*,#1234,.F.);
#1234 = EDGE_CURVE('',#612,#1148,#1235,.T.);
#1235 = LINE('',#1236,#1237);
#1236 = CARTESIAN_POINT('',(163.465031,-69.709697,0.));
#1237 = VECTOR('',#1238,1.);
#1238 = DIRECTION('',(0.,0.,1.));
#1239 = ORIENTED_EDGE('',*,*,#620,.F.);
#1240 = PLANE('',#1241);
#1241 = AXIS2_PLACEMENT_3D('',#1242,#1243,#1244);
#1242 = CARTESIAN_POINT('',(153.091151,-69.709697,0.));
#1243 = DIRECTION('',(0.,1.,0.));
#1244 = DIRECTION('',(1.,0.,0.));
#1245 = ADVANCED_FACE('',(#1246),#1257,.T.);
#1246 = FACE_BOUND('',#1247,.T.);
#1247 = EDGE_LOOP('',(#1248,#1254,#1255,#1256));
#1248 = ORIENTED_EDGE('',*,*,#1249,.T.);
#1249 = EDGE_CURVE('',#154,#690,#1250,.T.);
#1250 = LINE('',#1251,#1252);
#1251 = CARTESIAN_POINT('',(136.158931,-68.757593,0.));
#1252 = VECTOR('',#1253,1.);
#1253 = DIRECTION('',(0.,0.,1.));
#1254 = ORIENTED_EDGE('',*,*,#689,.T.);
#1255 = ORIENTED_EDGE('',*,*,#1215,.F.);
#1256 = ORIENTED_EDGE('',*,*,#153,.F.);
#1257 = CYLINDRICAL_SURFACE('',#1258,0.399999237686);
#1258 = AXIS2_PLACEMENT_3D('',#1259,#1260,#1261);
#1259 = CARTESIAN_POINT('',(136.5214530603,-68.58854523768,0.));
#1260 = DIRECTION('',(0.,0.,-1.));
#1261 = DIRECTION('',(-0.906306877981,-0.422620211212,-0.));
#1262 = ADVANCED_FACE('',(#1263),#1274,.F.);
#1263 = FACE_BOUND('',#1264,.T.);
#1264 = EDGE_LOOP('',(#1265,#1266,#1267,#1273));
#1265 = ORIENTED_EDGE('',*,*,#1234,.T.);
#1266 = ORIENTED_EDGE('',*,*,#1147,.T.);
#1267 = ORIENTED_EDGE('',*,*,#1268,.F.);
#1268 = EDGE_CURVE('',#604,#1140,#1269,.T.);
#1269 = LINE('',#1270,#1271);
#1270 = CARTESIAN_POINT('',(163.694462,-69.637358,0.));
#1271 = VECTOR('',#1272,1.);
#1272 = DIRECTION('',(0.,0.,1.));
#1273 = ORIENTED_EDGE('',*,*,#611,.F.);
#1274 = CYLINDRICAL_SURFACE('',#1275,0.400100202343);
#1275 = AXIS2_PLACEMENT_3D('',#1276,#1277,#1278);
#1276 = CARTESIAN_POINT('',(163.46500009262,-69.30959679885,0.));
#1277 = DIRECTION('',(-0.,-0.,-1.));
#1278 = DIRECTION('',(7.724908641495E-05,-0.999999997016,0.));
#1279 = ADVANCED_FACE('',(#1280),#1291,.T.);
#1280 = FACE_BOUND('',#1281,.T.);
#1281 = EDGE_LOOP('',(#1282,#1288,#1289,#1290));
#1282 = ORIENTED_EDGE('',*,*,#1283,.T.);
#1283 = EDGE_CURVE('',#163,#699,#1284,.T.);
#1284 = LINE('',#1285,#1286);
#1285 = CARTESIAN_POINT('',(136.656227,-69.824048,0.));
#1286 = VECTOR('',#1287,1.);
#1287 = DIRECTION('',(0.,0.,1.));
#1288 = ORIENTED_EDGE('',*,*,#698,.T.);
#1289 = ORIENTED_EDGE('',*,*,#1249,.F.);
#1290 = ORIENTED_EDGE('',*,*,#162,.F.);
#1291 = PLANE('',#1292);
#1292 = AXIS2_PLACEMENT_3D('',#1293,#1294,#1295);
#1293 = CARTESIAN_POINT('',(136.656227,-69.824048,0.));
#1294 = DIRECTION('',(-0.906307830517,-0.422618168497,0.));
#1295 = DIRECTION('',(-0.422618168497,0.906307830517,0.));
#1296 = ADVANCED_FACE('',(#1297),#1308,.T.);
#1297 = FACE_BOUND('',#1298,.T.);
#1298 = EDGE_LOOP('',(#1299,#1300,#1301,#1307));
#1299 = ORIENTED_EDGE('',*,*,#1268,.T.);
#1300 = ORIENTED_EDGE('',*,*,#1139,.T.);
#1301 = ORIENTED_EDGE('',*,*,#1302,.F.);
#1302 = EDGE_CURVE('',#596,#1132,#1303,.T.);
#1303 = LINE('',#1304,#1305);
#1304 = CARTESIAN_POINT('',(165.76358,-68.188546,0.));
#1305 = VECTOR('',#1306,1.);
#1306 = DIRECTION('',(0.,0.,1.));
#1307 = ORIENTED_EDGE('',*,*,#603,.F.);
#1308 = PLANE('',#1309);
#1309 = AXIS2_PLACEMENT_3D('',#1310,#1311,#1312);
#1310 = CARTESIAN_POINT('',(163.694462,-69.637358,0.));
#1311 = DIRECTION('',(-0.57357643076,0.819152048204,0.));
#1312 = DIRECTION('',(0.819152048204,0.57357643076,0.));
#1313 = ADVANCED_FACE('',(#1314),#1325,.T.);
#1314 = FACE_BOUND('',#1315,.T.);
#1315 = EDGE_LOOP('',(#1316,#1322,#1323,#1324));
#1316 = ORIENTED_EDGE('',*,*,#1317,.T.);
#1317 = EDGE_CURVE('',#171,#707,#1318,.T.);
#1318 = LINE('',#1319,#1320);
#1319 = CARTESIAN_POINT('',(137.155817,-70.030783,0.));
#1320 = VECTOR('',#1321,1.);
#1321 = DIRECTION('',(0.,0.,1.));
#1322 = ORIENTED_EDGE('',*,*,#706,.T.);
#1323 = ORIENTED_EDGE('',*,*,#1283,.F.);
#1324 = ORIENTED_EDGE('',*,*,#170,.F.);
#1325 = CYLINDRICAL_SURFACE('',#1326,0.399999723522);
#1326 = AXIS2_PLACEMENT_3D('',#1327,#1328,#1329);
#1327 = CARTESIAN_POINT('',(137.01874979721,-69.6550006684,0.));
#1328 = DIRECTION('',(0.,0.,-1.));
#1329 = DIRECTION('',(0.342668243818,-0.939456478331,0.));
#1330 = ADVANCED_FACE('',(#1331),#1342,.T.);
#1331 = FACE_BOUND('',#1332,.T.);
#1332 = EDGE_LOOP('',(#1333,#1334,#1335,#1341));
#1333 = ORIENTED_EDGE('',*,*,#1302,.T.);
#1334 = ORIENTED_EDGE('',*,*,#1131,.T.);
#1335 = ORIENTED_EDGE('',*,*,#1336,.F.);
#1336 = EDGE_CURVE('',#587,#1123,#1337,.T.);
#1337 = LINE('',#1338,#1339);
#1338 = CARTESIAN_POINT('',(169.660848,-68.188546,0.));
#1339 = VECTOR('',#1340,1.);
#1340 = DIRECTION('',(0.,0.,1.));
#1341 = ORIENTED_EDGE('',*,*,#595,.F.);
#1342 = PLANE('',#1343);
#1343 = AXIS2_PLACEMENT_3D('',#1344,#1345,#1346);
#1344 = CARTESIAN_POINT('',(165.76358,-68.188546,0.));
#1345 = DIRECTION('',(0.,1.,0.));
#1346 = DIRECTION('',(1.,0.,0.));
#1347 = ADVANCED_FACE('',(#1348),#1359,.F.);
#1348 = FACE_BOUND('',#1349,.T.);
#1349 = EDGE_LOOP('',(#1350,#1356,#1357,#1358));
#1350 = ORIENTED_EDGE('',*,*,#1351,.T.);
#1351 = EDGE_CURVE('',#180,#716,#1352,.T.);
#1352 = LINE('',#1353,#1354);
#1353 = CARTESIAN_POINT('',(135.962237,-71.224363,0.));
#1354 = VECTOR('',#1355,1.);
#1355 = DIRECTION('',(0.,0.,1.));
#1356 = ORIENTED_EDGE('',*,*,#715,.T.);
#1357 = ORIENTED_EDGE('',*,*,#1317,.F.);
#1358 = ORIENTED_EDGE('',*,*,#179,.F.);
#1359 = CYLINDRICAL_SURFACE('',#1360,2.000000361287);
#1360 = AXIS2_PLACEMENT_3D('',#1361,#1362,#1363);
#1361 = CARTESIAN_POINT('',(137.84115118215,-71.90969718215,0.));
#1362 = DIRECTION('',(-0.,0.,-1.));
#1363 = DIRECTION('',(-0.939456921372,0.342667029178,0.));
#1364 = ADVANCED_FACE('',(#1365),#1376,.T.);
#1365 = FACE_BOUND('',#1366,.T.);
#1366 = EDGE_LOOP('',(#1367,#1368,#1369,#1375));
#1367 = ORIENTED_EDGE('',*,*,#1336,.T.);
#1368 = ORIENTED_EDGE('',*,*,#1122,.T.);
#1369 = ORIENTED_EDGE('',*,*,#1370,.F.);
#1370 = EDGE_CURVE('',#579,#1115,#1371,.T.);
#1371 = LINE('',#1372,#1373);
#1372 = CARTESIAN_POINT('',(170.023371,-68.757593,0.));
#1373 = VECTOR('',#1374,1.);
#1374 = DIRECTION('',(0.,0.,1.));
#1375 = ORIENTED_EDGE('',*,*,#586,.F.);
#1376 = CYLINDRICAL_SURFACE('',#1377,0.399995675766);
#1377 = AXIS2_PLACEMENT_3D('',#1378,#1379,#1380);
#1378 = CARTESIAN_POINT('',(169.66085453087,-68.58854167571,0.));
#1379 = DIRECTION('',(0.,0.,-1.));
#1380 = DIRECTION('',(-1.632735831928E-05,0.999999999867,0.));
#1381 = ADVANCED_FACE('',(#1382),#1393,.T.);
#1382 = FACE_BOUND('',#1383,.T.);
#1383 = EDGE_LOOP('',(#1384,#1390,#1391,#1392));
#1384 = ORIENTED_EDGE('',*,*,#1385,.T.);
#1385 = EDGE_CURVE('',#189,#725,#1386,.T.);
#1386 = LINE('',#1387,#1388);
#1387 = CARTESIAN_POINT('',(135.755502,-70.724773,0.));
#1388 = VECTOR('',#1389,1.);
#1389 = DIRECTION('',(0.,0.,1.));
#1390 = ORIENTED_EDGE('',*,*,#724,.T.);
#1391 = ORIENTED_EDGE('',*,*,#1351,.F.);
#1392 = ORIENTED_EDGE('',*,*,#188,.F.);
#1393 = CYLINDRICAL_SURFACE('',#1394,0.399999723522);
#1394 = AXIS2_PLACEMENT_3D('',#1395,#1396,#1397);
#1395 = CARTESIAN_POINT('',(135.5864546684,-71.08729579721,0.));
#1396 = DIRECTION('',(0.,0.,-1.));
#1397 = DIRECTION('',(0.422618621096,0.906307619466,0.));
#1398 = ADVANCED_FACE('',(#1399),#1410,.T.);
#1399 = FACE_BOUND('',#1400,.T.);
#1400 = EDGE_LOOP('',(#1401,#1402,#1403,#1409));
#1401 = ORIENTED_EDGE('',*,*,#1370,.T.);
#1402 = ORIENTED_EDGE('',*,*,#1114,.T.);
#1403 = ORIENTED_EDGE('',*,*,#1404,.F.);
#1404 = EDGE_CURVE('',#570,#1106,#1405,.T.);
#1405 = LINE('',#1406,#1407);
#1406 = CARTESIAN_POINT('',(169.526075,-69.824048,0.));
#1407 = VECTOR('',#1408,1.);
#1408 = DIRECTION('',(0.,0.,1.));
#1409 = ORIENTED_EDGE('',*,*,#578,.F.);
#1410 = PLANE('',#1411);
#1411 = AXIS2_PLACEMENT_3D('',#1412,#1413,#1414);
#1412 = CARTESIAN_POINT('',(170.023371,-68.757593,0.));
#1413 = DIRECTION('',(0.906307830517,-0.422618168497,0.));
#1414 = DIRECTION('',(-0.422618168497,-0.906307830517,0.));
#1415 = ADVANCED_FACE('',(#1416),#1427,.T.);
#1416 = FACE_BOUND('',#1417,.T.);
#1417 = EDGE_LOOP('',(#1418,#1424,#1425,#1426));
#1418 = ORIENTED_EDGE('',*,*,#1419,.T.);
#1419 = EDGE_CURVE('',#198,#734,#1420,.T.);
#1420 = LINE('',#1421,#1422);
#1421 = CARTESIAN_POINT('',(134.689047,-70.227477,0.));
#1422 = VECTOR('',#1423,1.);
#1423 = DIRECTION('',(0.,0.,1.));
#1424 = ORIENTED_EDGE('',*,*,#733,.T.);
#1425 = ORIENTED_EDGE('',*,*,#1385,.F.);
#1426 = ORIENTED_EDGE('',*,*,#197,.F.);
#1427 = PLANE('',#1428);
#1428 = AXIS2_PLACEMENT_3D('',#1429,#1430,#1431);
#1429 = CARTESIAN_POINT('',(134.689047,-70.227477,0.));
#1430 = DIRECTION('',(0.422618168497,0.906307830517,-0.));
#1431 = DIRECTION('',(0.906307830517,-0.422618168497,0.));
#1432 = ADVANCED_FACE('',(#1433),#1444,.T.);
#1433 = FACE_BOUND('',#1434,.T.);
#1434 = EDGE_LOOP('',(#1435,#1436,#1437,#1443));
#1435 = ORIENTED_EDGE('',*,*,#1404,.T.);
#1436 = ORIENTED_EDGE('',*,*,#1105,.T.);
#1437 = ORIENTED_EDGE('',*,*,#1438,.F.);
#1438 = EDGE_CURVE('',#561,#1097,#1439,.T.);
#1439 = LINE('',#1440,#1441);
#1440 = CARTESIAN_POINT('',(169.026485,-70.030783,0.));
#1441 = VECTOR('',#1442,1.);
#1442 = DIRECTION('',(0.,0.,1.));
#1443 = ORIENTED_EDGE('',*,*,#569,.F.);
#1444 = CYLINDRICAL_SURFACE('',#1445,0.400002313482);
#1445 = AXIS2_PLACEMENT_3D('',#1446,#1447,#1448);
#1446 = CARTESIAN_POINT('',(169.16355085916,-69.65499742145,0.));
#1447 = DIRECTION('',(0.,0.,-1.));
#1448 = DIRECTION('',(0.906305110275,-0.422624002027,0.));
#1449 = ADVANCED_FACE('',(#1450),#1461,.T.);
#1450 = FACE_BOUND('',#1451,.T.);
#1451 = EDGE_LOOP('',(#1452,#1458,#1459,#1460));
#1452 = ORIENTED_EDGE('',*,*,#1453,.T.);
#1453 = EDGE_CURVE('',#206,#742,#1454,.T.);
#1454 = LINE('',#1455,#1456);
#1455 = CARTESIAN_POINT('',(134.12,-70.59,0.));
#1456 = VECTOR('',#1457,1.);
#1457 = DIRECTION('',(0.,0.,1.));
#1458 = ORIENTED_EDGE('',*,*,#741,.T.);
#1459 = ORIENTED_EDGE('',*,*,#1419,.F.);
#1460 = ORIENTED_EDGE('',*,*,#205,.F.);
#1461 = CYLINDRICAL_SURFACE('',#1462,0.399999237686);
#1462 = AXIS2_PLACEMENT_3D('',#1463,#1464,#1465);
#1463 = CARTESIAN_POINT('',(134.51999923768,-70.5899990603,0.));
#1464 = DIRECTION('',(0.,0.,-1.));
#1465 = DIRECTION('',(-0.999999999997,-2.349250430494E-06,-0.));
#1466 = ADVANCED_FACE('',(#1467),#1478,.F.);
#1467 = FACE_BOUND('',#1468,.T.);
#1468 = EDGE_LOOP('',(#1469,#1470,#1471,#1477));
#1469 = ORIENTED_EDGE('',*,*,#1438,.T.);
#1470 = ORIENTED_EDGE('',*,*,#1096,.T.);
#1471 = ORIENTED_EDGE('',*,*,#1472,.F.);
#1472 = EDGE_CURVE('',#552,#1088,#1473,.T.);
#1473 = LINE('',#1474,#1475);
#1474 = CARTESIAN_POINT('',(170.220065,-71.224363,0.));
#1475 = VECTOR('',#1476,1.);
#1476 = DIRECTION('',(0.,0.,1.));
#1477 = ORIENTED_EDGE('',*,*,#560,.F.);
#1478 = CYLINDRICAL_SURFACE('',#1479,2.000000361287);
#1479 = AXIS2_PLACEMENT_3D('',#1480,#1481,#1482);
#1480 = CARTESIAN_POINT('',(168.34115081784,-71.90969718215,0.));
#1481 = DIRECTION('',(0.,-0.,-1.));
#1482 = DIRECTION('',(0.342667029178,0.939456921372,0.));
#1483 = ADVANCED_FACE('',(#1484),#1495,.T.);
#1484 = FACE_BOUND('',#1485,.T.);
#1485 = EDGE_LOOP('',(#1486,#1492,#1493,#1494));
#1486 = ORIENTED_EDGE('',*,*,#1487,.T.);
#1487 = EDGE_CURVE('',#215,#751,#1488,.T.);
#1488 = LINE('',#1489,#1490);
#1489 = CARTESIAN_POINT('',(134.12,-74.487268,0.));
#1490 = VECTOR('',#1491,1.);
#1491 = DIRECTION('',(0.,0.,1.));
#1492 = ORIENTED_EDGE('',*,*,#750,.T.);
#1493 = ORIENTED_EDGE('',*,*,#1453,.F.);
#1494 = ORIENTED_EDGE('',*,*,#214,.F.);
#1495 = PLANE('',#1496);
#1496 = AXIS2_PLACEMENT_3D('',#1497,#1498,#1499);
#1497 = CARTESIAN_POINT('',(134.12,-74.487268,0.));
#1498 = DIRECTION('',(-1.,0.,0.));
#1499 = DIRECTION('',(0.,1.,0.));
#1500 = ADVANCED_FACE('',(#1501),#1512,.T.);
#1501 = FACE_BOUND('',#1502,.T.);
#1502 = EDGE_LOOP('',(#1503,#1504,#1505,#1511));
#1503 = ORIENTED_EDGE('',*,*,#1472,.T.);
#1504 = ORIENTED_EDGE('',*,*,#1087,.T.);
#1505 = ORIENTED_EDGE('',*,*,#1506,.F.);
#1506 = EDGE_CURVE('',#544,#1080,#1507,.T.);
#1507 = LINE('',#1508,#1509);
#1508 = CARTESIAN_POINT('',(170.4268,-70.724773,0.));
#1509 = VECTOR('',#1510,1.);
#1510 = DIRECTION('',(0.,0.,1.));
#1511 = ORIENTED_EDGE('',*,*,#551,.F.);
#1512 = CYLINDRICAL_SURFACE('',#1513,0.400002313482);
#1513 = AXIS2_PLACEMENT_3D('',#1514,#1515,#1516);
#1514 = CARTESIAN_POINT('',(170.59585057854,-71.08729714083,0.));
#1515 = DIRECTION('',(0.,0.,-1.));
#1516 = DIRECTION('',(-0.939458512808,-0.342662666062,-0.));
#1517 = ADVANCED_FACE('',(#1518),#1529,.T.);
#1518 = FACE_BOUND('',#1519,.T.);
#1519 = EDGE_LOOP('',(#1520,#1526,#1527,#1528));
#1520 = ORIENTED_EDGE('',*,*,#1521,.T.);
#1521 = EDGE_CURVE('',#223,#759,#1522,.T.);
#1522 = LINE('',#1523,#1524);
#1523 = CARTESIAN_POINT('',(135.568812,-76.556386,0.));
#1524 = VECTOR('',#1525,1.);
#1525 = DIRECTION('',(0.,0.,1.));
#1526 = ORIENTED_EDGE('',*,*,#758,.T.);
#1527 = ORIENTED_EDGE('',*,*,#1487,.F.);
#1528 = ORIENTED_EDGE('',*,*,#222,.F.);
#1529 = PLANE('',#1530);
#1530 = AXIS2_PLACEMENT_3D('',#1531,#1532,#1533);
#1531 = CARTESIAN_POINT('',(135.568812,-76.556386,0.));
#1532 = DIRECTION('',(-0.819152048204,-0.57357643076,0.));
#1533 = DIRECTION('',(-0.57357643076,0.819152048204,0.));
#1534 = ADVANCED_FACE('',(#1535),#1546,.T.);
#1535 = FACE_BOUND('',#1536,.T.);
#1536 = EDGE_LOOP('',(#1537,#1538,#1539,#1545));
#1537 = ORIENTED_EDGE('',*,*,#1506,.T.);
#1538 = ORIENTED_EDGE('',*,*,#1079,.T.);
#1539 = ORIENTED_EDGE('',*,*,#1540,.F.);
#1540 = EDGE_CURVE('',#535,#1071,#1541,.T.);
#1541 = LINE('',#1542,#1543);
#1542 = CARTESIAN_POINT('',(171.493255,-70.227477,0.));
#1543 = VECTOR('',#1544,1.);
#1544 = DIRECTION('',(0.,0.,1.));
#1545 = ORIENTED_EDGE('',*,*,#543,.F.);
#1546 = PLANE('',#1547);
#1547 = AXIS2_PLACEMENT_3D('',#1548,#1549,#1550);
#1548 = CARTESIAN_POINT('',(170.4268,-70.724773,0.));
#1549 = DIRECTION('',(-0.422618168497,0.906307830517,0.));
#1550 = DIRECTION('',(0.906307830517,0.422618168497,0.));
#1551 = ADVANCED_FACE('',(#1552),#1563,.F.);
#1552 = FACE_BOUND('',#1553,.T.);
#1553 = EDGE_LOOP('',(#1554,#1560,#1561,#1562));
#1554 = ORIENTED_EDGE('',*,*,#1555,.T.);
#1555 = EDGE_CURVE('',#231,#767,#1556,.T.);
#1556 = LINE('',#1557,#1558);
#1557 = CARTESIAN_POINT('',(135.641151,-76.785817,0.));
#1558 = VECTOR('',#1559,1.);
#1559 = DIRECTION('',(0.,0.,1.));
#1560 = ORIENTED_EDGE('',*,*,#766,.T.);
#1561 = ORIENTED_EDGE('',*,*,#1521,.F.);
#1562 = ORIENTED_EDGE('',*,*,#230,.F.);
#1563 = CYLINDRICAL_SURFACE('',#1564,0.39999571705);
#1564 = AXIS2_PLACEMENT_3D('',#1565,#1566,#1567);
#1565 = CARTESIAN_POINT('',(135.24115528295,-76.7858149638,0.));
#1566 = DIRECTION('',(-0.,-0.,-1.));
#1567 = DIRECTION('',(0.999999999987,-5.090535751691E-06,0.));
#1568 = ADVANCED_FACE('',(#1569),#1580,.T.);
#1569 = FACE_BOUND('',#1570,.T.);
#1570 = EDGE_LOOP('',(#1571,#1572,#1573,#1579));
#1571 = ORIENTED_EDGE('',*,*,#1540,.T.);
#1572 = ORIENTED_EDGE('',*,*,#1070,.T.);
#1573 = ORIENTED_EDGE('',*,*,#1574,.F.);
#1574 = EDGE_CURVE('',#527,#1063,#1575,.T.);
#1575 = LINE('',#1576,#1577);
#1576 = CARTESIAN_POINT('',(172.062302,-70.59,0.));
#1577 = VECTOR('',#1578,1.);
#1578 = DIRECTION('',(0.,0.,1.));
#1579 = ORIENTED_EDGE('',*,*,#534,.F.);
#1580 = CYLINDRICAL_SURFACE('',#1581,0.39994589786);
#1581 = AXIS2_PLACEMENT_3D('',#1582,#1583,#1584);
#1582 = CARTESIAN_POINT('',(171.6623561111,-70.58991531949,0.));
#1583 = DIRECTION('',(0.,0.,-1.));
#1584 = DIRECTION('',(-0.42280996507,0.90621836962,0.));
#1585 = ADVANCED_FACE('',(#1586),#1597,.T.);
#1586 = FACE_BOUND('',#1587,.T.);
#1587 = EDGE_LOOP('',(#1588,#1594,#1595,#1596));
#1588 = ORIENTED_EDGE('',*,*,#1589,.T.);
#1589 = EDGE_CURVE('',#240,#776,#1590,.T.);
#1590 = LINE('',#1591,#1592);
#1591 = CARTESIAN_POINT('',(135.641151,-87.159697,0.));
#1592 = VECTOR('',#1593,1.);
#1593 = DIRECTION('',(0.,0.,1.));
#1594 = ORIENTED_EDGE('',*,*,#775,.T.);
#1595 = ORIENTED_EDGE('',*,*,#1555,.F.);
#1596 = ORIENTED_EDGE('',*,*,#239,.F.);
#1597 = PLANE('',#1598);
#1598 = AXIS2_PLACEMENT_3D('',#1599,#1600,#1601);
#1599 = CARTESIAN_POINT('',(135.641151,-87.159697,0.));
#1600 = DIRECTION('',(-1.,0.,0.));
#1601 = DIRECTION('',(0.,1.,0.));
#1602 = ADVANCED_FACE('',(#1603),#1614,.T.);
#1603 = FACE_BOUND('',#1604,.T.);
#1604 = EDGE_LOOP('',(#1605,#1606,#1607,#1613));
#1605 = ORIENTED_EDGE('',*,*,#1574,.T.);
#1606 = ORIENTED_EDGE('',*,*,#1062,.T.);
#1607 = ORIENTED_EDGE('',*,*,#1608,.F.);
#1608 = EDGE_CURVE('',#519,#1055,#1609,.T.);
#1609 = LINE('',#1610,#1611);
#1610 = CARTESIAN_POINT('',(172.062302,-74.487268,0.));
#1611 = VECTOR('',#1612,1.);
#1612 = DIRECTION('',(0.,0.,1.));
#1613 = ORIENTED_EDGE('',*,*,#526,.F.);
#1614 = PLANE('',#1615);
#1615 = AXIS2_PLACEMENT_3D('',#1616,#1617,#1618);
#1616 = CARTESIAN_POINT('',(172.062302,-70.59,0.));
#1617 = DIRECTION('',(1.,0.,-0.));
#1618 = DIRECTION('',(0.,-1.,0.));
#1619 = ADVANCED_FACE('',(#1620),#1631,.T.);
#1620 = FACE_BOUND('',#1621,.T.);
#1621 = EDGE_LOOP('',(#1622,#1628,#1629,#1630));
#1622 = ORIENTED_EDGE('',*,*,#1623,.T.);
#1623 = EDGE_CURVE('',#248,#784,#1624,.T.);
#1624 = LINE('',#1625,#1626);
#1625 = CARTESIAN_POINT('',(135.641151,-97.533577,0.));
#1626 = VECTOR('',#1627,1.);
#1627 = DIRECTION('',(0.,0.,1.));
#1628 = ORIENTED_EDGE('',*,*,#783,.T.);
#1629 = ORIENTED_EDGE('',*,*,#1589,.F.);
#1630 = ORIENTED_EDGE('',*,*,#247,.F.);
#1631 = PLANE('',#1632);
#1632 = AXIS2_PLACEMENT_3D('',#1633,#1634,#1635);
#1633 = CARTESIAN_POINT('',(135.641151,-97.533577,0.));
#1634 = DIRECTION('',(-1.,0.,0.));
#1635 = DIRECTION('',(0.,1.,0.));
#1636 = ADVANCED_FACE('',(#1637),#1648,.T.);
#1637 = FACE_BOUND('',#1638,.T.);
#1638 = EDGE_LOOP('',(#1639,#1640,#1641,#1647));
#1639 = ORIENTED_EDGE('',*,*,#1608,.T.);
#1640 = ORIENTED_EDGE('',*,*,#1054,.T.);
#1641 = ORIENTED_EDGE('',*,*,#1642,.F.);
#1642 = EDGE_CURVE('',#510,#1046,#1643,.T.);
#1643 = LINE('',#1644,#1645);
#1644 = CARTESIAN_POINT('',(170.61349,-76.556386,0.));
#1645 = VECTOR('',#1646,1.);
#1646 = DIRECTION('',(0.,0.,1.));
#1647 = ORIENTED_EDGE('',*,*,#518,.F.);
#1648 = PLANE('',#1649);
#1649 = AXIS2_PLACEMENT_3D('',#1650,#1651,#1652);
#1650 = CARTESIAN_POINT('',(172.062302,-74.487268,0.));
#1651 = DIRECTION('',(0.819152048204,-0.57357643076,0.));
#1652 = DIRECTION('',(-0.57357643076,-0.819152048204,0.));
#1653 = ADVANCED_FACE('',(#1654),#1665,.F.);
#1654 = FACE_BOUND('',#1655,.T.);
#1655 = EDGE_LOOP('',(#1656,#1662,#1663,#1664));
#1656 = ORIENTED_EDGE('',*,*,#1657,.T.);
#1657 = EDGE_CURVE('',#256,#792,#1658,.T.);
#1658 = LINE('',#1659,#1660);
#1659 = CARTESIAN_POINT('',(135.568812,-97.763008,0.));
#1660 = VECTOR('',#1661,1.);
#1661 = DIRECTION('',(0.,0.,1.));
#1662 = ORIENTED_EDGE('',*,*,#791,.T.);
#1663 = ORIENTED_EDGE('',*,*,#1623,.F.);
#1664 = ORIENTED_EDGE('',*,*,#255,.F.);
#1665 = CYLINDRICAL_SURFACE('',#1666,0.39999571705);
#1666 = AXIS2_PLACEMENT_3D('',#1667,#1668,#1669);
#1667 = CARTESIAN_POINT('',(135.24115528295,-97.53357903619,0.));
#1668 = DIRECTION('',(-0.,-0.,-1.));
#1669 = DIRECTION('',(0.819150563564,-0.573578551039,0.));
#1670 = ADVANCED_FACE('',(#1671),#1682,.F.);
#1671 = FACE_BOUND('',#1672,.T.);
#1672 = EDGE_LOOP('',(#1673,#1674,#1675,#1681));
#1673 = ORIENTED_EDGE('',*,*,#1642,.T.);
#1674 = ORIENTED_EDGE('',*,*,#1045,.T.);
#1675 = ORIENTED_EDGE('',*,*,#1676,.F.);
#1676 = EDGE_CURVE('',#502,#1038,#1677,.T.);
#1677 = LINE('',#1678,#1679);
#1678 = CARTESIAN_POINT('',(170.541151,-76.785817,0.));
#1679 = VECTOR('',#1680,1.);
#1680 = DIRECTION('',(0.,0.,1.));
#1681 = ORIENTED_EDGE('',*,*,#509,.F.);
#1682 = CYLINDRICAL_SURFACE('',#1683,0.39988509768);
#1683 = AXIS2_PLACEMENT_3D('',#1684,#1685,#1686);
#1684 = CARTESIAN_POINT('',(170.94103609597,-76.78578008527,0.));
#1685 = DIRECTION('',(-0.,-0.,-1.));
#1686 = DIRECTION('',(-0.819100531319,0.573649997467,0.));
#1687 = ADVANCED_FACE('',(#1688),#1699,.T.);
#1688 = FACE_BOUND('',#1689,.T.);
#1689 = EDGE_LOOP('',(#1690,#1696,#1697,#1698));
#1690 = ORIENTED_EDGE('',*,*,#1691,.T.);
#1691 = EDGE_CURVE('',#265,#801,#1692,.T.);
#1692 = LINE('',#1693,#1694);
#1693 = CARTESIAN_POINT('',(134.12,-99.832126,0.));
#1694 = VECTOR('',#1695,1.);
#1695 = DIRECTION('',(0.,0.,1.));
#1696 = ORIENTED_EDGE('',*,*,#800,.T.);
#1697 = ORIENTED_EDGE('',*,*,#1657,.F.);
#1698 = ORIENTED_EDGE('',*,*,#264,.F.);
#1699 = PLANE('',#1700);
#1700 = AXIS2_PLACEMENT_3D('',#1701,#1702,#1703);
#1701 = CARTESIAN_POINT('',(134.12,-99.832126,0.));
#1702 = DIRECTION('',(-0.819152048204,0.57357643076,0.));
#1703 = DIRECTION('',(0.57357643076,0.819152048204,0.));
#1704 = ADVANCED_FACE('',(#1705),#1716,.T.);
#1705 = FACE_BOUND('',#1706,.T.);
#1706 = EDGE_LOOP('',(#1707,#1708,#1709,#1715));
#1707 = ORIENTED_EDGE('',*,*,#1676,.T.);
#1708 = ORIENTED_EDGE('',*,*,#1037,.T.);
#1709 = ORIENTED_EDGE('',*,*,#1710,.F.);
#1710 = EDGE_CURVE('',#494,#1030,#1711,.T.);
#1711 = LINE('',#1712,#1713);
#1712 = CARTESIAN_POINT('',(170.541151,-87.159697,0.));
#1713 = VECTOR('',#1714,1.);
#1714 = DIRECTION('',(0.,0.,1.));
#1715 = ORIENTED_EDGE('',*,*,#501,.F.);
#1716 = PLANE('',#1717);
#1717 = AXIS2_PLACEMENT_3D('',#1718,#1719,#1720);
#1718 = CARTESIAN_POINT('',(170.541151,-76.785817,0.));
#1719 = DIRECTION('',(1.,0.,-0.));
#1720 = DIRECTION('',(0.,-1.,0.));
#1721 = ADVANCED_FACE('',(#1722),#1733,.T.);
#1722 = FACE_BOUND('',#1723,.T.);
#1723 = EDGE_LOOP('',(#1724,#1730,#1731,#1732));
#1724 = ORIENTED_EDGE('',*,*,#1725,.T.);
#1725 = EDGE_CURVE('',#273,#809,#1726,.T.);
#1726 = LINE('',#1727,#1728);
#1727 = CARTESIAN_POINT('',(134.12,-103.729394,0.));
#1728 = VECTOR('',#1729,1.);
#1729 = DIRECTION('',(0.,0.,1.));
#1730 = ORIENTED_EDGE('',*,*,#808,.T.);
#1731 = ORIENTED_EDGE('',*,*,#1691,.F.);
#1732 = ORIENTED_EDGE('',*,*,#272,.F.);
#1733 = PLANE('',#1734);
#1734 = AXIS2_PLACEMENT_3D('',#1735,#1736,#1737);
#1735 = CARTESIAN_POINT('',(134.12,-103.729394,0.));
#1736 = DIRECTION('',(-1.,0.,0.));
#1737 = DIRECTION('',(0.,1.,0.));
#1738 = ADVANCED_FACE('',(#1739),#1750,.T.);
#1739 = FACE_BOUND('',#1740,.T.);
#1740 = EDGE_LOOP('',(#1741,#1742,#1743,#1749));
#1741 = ORIENTED_EDGE('',*,*,#1710,.T.);
#1742 = ORIENTED_EDGE('',*,*,#1029,.T.);
#1743 = ORIENTED_EDGE('',*,*,#1744,.F.);
#1744 = EDGE_CURVE('',#485,#1021,#1745,.T.);
#1745 = LINE('',#1746,#1747);
#1746 = CARTESIAN_POINT('',(170.541151,-97.533577,0.));
#1747 = VECTOR('',#1748,1.);
#1748 = DIRECTION('',(0.,0.,1.));
#1749 = ORIENTED_EDGE('',*,*,#493,.F.);
#1750 = PLANE('',#1751);
#1751 = AXIS2_PLACEMENT_3D('',#1752,#1753,#1754);
#1752 = CARTESIAN_POINT('',(170.541151,-87.159697,0.));
#1753 = DIRECTION('',(1.,0.,-0.));
#1754 = DIRECTION('',(0.,-1.,0.));
#1755 = ADVANCED_FACE('',(#1756),#1767,.T.);
#1756 = FACE_BOUND('',#1757,.T.);
#1757 = EDGE_LOOP('',(#1758,#1764,#1765,#1766));
#1758 = ORIENTED_EDGE('',*,*,#1759,.T.);
#1759 = EDGE_CURVE('',#281,#817,#1760,.T.);
#1760 = LINE('',#1761,#1762);
#1761 = CARTESIAN_POINT('',(134.689047,-104.091917,0.));
#1762 = VECTOR('',#1763,1.);
#1763 = DIRECTION('',(0.,0.,1.));
#1764 = ORIENTED_EDGE('',*,*,#816,.T.);
#1765 = ORIENTED_EDGE('',*,*,#1725,.F.);
#1766 = ORIENTED_EDGE('',*,*,#280,.F.);
#1767 = CYLINDRICAL_SURFACE('',#1768,0.399999237686);
#1768 = AXIS2_PLACEMENT_3D('',#1769,#1770,#1771);
#1769 = CARTESIAN_POINT('',(134.51999923768,-103.7293949396,0.));
#1770 = DIRECTION('',(0.,0.,-1.));
#1771 = DIRECTION('',(0.422620211212,-0.906306877981,0.));
#1772 = ADVANCED_FACE('',(#1773),#1784,.F.);
#1773 = FACE_BOUND('',#1774,.T.);
#1774 = EDGE_LOOP('',(#1775,#1776,#1777,#1783));
#1775 = ORIENTED_EDGE('',*,*,#1744,.T.);
#1776 = ORIENTED_EDGE('',*,*,#1020,.T.);
#1777 = ORIENTED_EDGE('',*,*,#1778,.F.);
#1778 = EDGE_CURVE('',#477,#1013,#1779,.T.);
#1779 = LINE('',#1780,#1781);
#1780 = CARTESIAN_POINT('',(170.61349,-97.763008,0.));
#1781 = VECTOR('',#1782,1.);
#1782 = DIRECTION('',(0.,0.,1.));
#1783 = ORIENTED_EDGE('',*,*,#484,.F.);
#1784 = CYLINDRICAL_SURFACE('',#1785,0.400100202344);
#1785 = AXIS2_PLACEMENT_3D('',#1786,#1787,#1788);
#1786 = CARTESIAN_POINT('',(170.94125120115,-97.53354609262,0.));
#1787 = DIRECTION('',(-0.,-0.,-1.));
#1788 = DIRECTION('',(-0.999999997016,-7.724908645043E-05,0.));
#1789 = ADVANCED_FACE('',(#1790),#1801,.T.);
#1790 = FACE_BOUND('',#1791,.T.);
#1791 = EDGE_LOOP('',(#1792,#1798,#1799,#1800));
#1792 = ORIENTED_EDGE('',*,*,#1793,.T.);
#1793 = EDGE_CURVE('',#290,#826,#1794,.T.);
#1794 = LINE('',#1795,#1796);
#1795 = CARTESIAN_POINT('',(135.755502,-103.594621,0.));
#1796 = VECTOR('',#1797,1.);
#1797 = DIRECTION('',(0.,0.,1.));
#1798 = ORIENTED_EDGE('',*,*,#825,.T.);
#1799 = ORIENTED_EDGE('',*,*,#1759,.F.);
#1800 = ORIENTED_EDGE('',*,*,#289,.F.);
#1801 = PLANE('',#1802);
#1802 = AXIS2_PLACEMENT_3D('',#1803,#1804,#1805);
#1803 = CARTESIAN_POINT('',(135.755502,-103.594621,0.));
#1804 = DIRECTION('',(0.422618168497,-0.906307830517,0.));
#1805 = DIRECTION('',(-0.906307830517,-0.422618168497,0.));
#1806 = ADVANCED_FACE('',(#1807),#1818,.T.);
#1807 = FACE_BOUND('',#1808,.T.);
#1808 = EDGE_LOOP('',(#1809,#1810,#1811,#1817));
#1809 = ORIENTED_EDGE('',*,*,#1778,.T.);
#1810 = ORIENTED_EDGE('',*,*,#1012,.T.);
#1811 = ORIENTED_EDGE('',*,*,#1812,.F.);
#1812 = EDGE_CURVE('',#469,#1005,#1813,.T.);
#1813 = LINE('',#1814,#1815);
#1814 = CARTESIAN_POINT('',(172.062302,-99.832126,0.));
#1815 = VECTOR('',#1816,1.);
#1816 = DIRECTION('',(0.,0.,1.));
#1817 = ORIENTED_EDGE('',*,*,#476,.F.);
#1818 = PLANE('',#1819);
#1819 = AXIS2_PLACEMENT_3D('',#1820,#1821,#1822);
#1820 = CARTESIAN_POINT('',(170.61349,-97.763008,0.));
#1821 = DIRECTION('',(0.819152048204,0.57357643076,-0.));
#1822 = DIRECTION('',(0.57357643076,-0.819152048204,0.));
#1823 = ADVANCED_FACE('',(#1824),#1835,.T.);
#1824 = FACE_BOUND('',#1825,.T.);
#1825 = EDGE_LOOP('',(#1826,#1832,#1833,#1834));
#1826 = ORIENTED_EDGE('',*,*,#1827,.T.);
#1827 = EDGE_CURVE('',#298,#834,#1828,.T.);
#1828 = LINE('',#1829,#1830);
#1829 = CARTESIAN_POINT('',(135.962237,-103.095031,0.));
#1830 = VECTOR('',#1831,1.);
#1831 = DIRECTION('',(0.,0.,1.));
#1832 = ORIENTED_EDGE('',*,*,#833,.T.);
#1833 = ORIENTED_EDGE('',*,*,#1793,.F.);
#1834 = ORIENTED_EDGE('',*,*,#297,.F.);
#1835 = CYLINDRICAL_SURFACE('',#1836,0.399999723522);
#1836 = AXIS2_PLACEMENT_3D('',#1837,#1838,#1839);
#1837 = CARTESIAN_POINT('',(135.5864546684,-103.2320982027,0.));
#1838 = DIRECTION('',(0.,0.,-1.));
#1839 = DIRECTION('',(0.939456478331,0.342668243818,0.));
#1840 = ADVANCED_FACE('',(#1841),#1852,.T.);
#1841 = FACE_BOUND('',#1842,.T.);
#1842 = EDGE_LOOP('',(#1843,#1844,#1845,#1851));
#1843 = ORIENTED_EDGE('',*,*,#1812,.T.);
#1844 = ORIENTED_EDGE('',*,*,#1004,.T.);
#1845 = ORIENTED_EDGE('',*,*,#1846,.F.);
#1846 = EDGE_CURVE('',#460,#996,#1847,.T.);
#1847 = LINE('',#1848,#1849);
#1848 = CARTESIAN_POINT('',(172.062302,-103.729394,0.));
#1849 = VECTOR('',#1850,1.);
#1850 = DIRECTION('',(0.,0.,1.));
#1851 = ORIENTED_EDGE('',*,*,#468,.F.);
#1852 = PLANE('',#1853);
#1853 = AXIS2_PLACEMENT_3D('',#1854,#1855,#1856);
#1854 = CARTESIAN_POINT('',(172.062302,-99.832126,0.));
#1855 = DIRECTION('',(1.,0.,-0.));
#1856 = DIRECTION('',(0.,-1.,0.));
#1857 = ADVANCED_FACE('',(#1858),#1869,.F.);
#1858 = FACE_BOUND('',#1859,.T.);
#1859 = EDGE_LOOP('',(#1860,#1866,#1867,#1868));
#1860 = ORIENTED_EDGE('',*,*,#1861,.T.);
#1861 = EDGE_CURVE('',#307,#843,#1862,.T.);
#1862 = LINE('',#1863,#1864);
#1863 = CARTESIAN_POINT('',(137.155817,-104.288611,0.));
#1864 = VECTOR('',#1865,1.);
#1865 = DIRECTION('',(0.,0.,1.));
#1866 = ORIENTED_EDGE('',*,*,#842,.T.);
#1867 = ORIENTED_EDGE('',*,*,#1827,.F.);
#1868 = ORIENTED_EDGE('',*,*,#306,.F.);
#1869 = CYLINDRICAL_SURFACE('',#1870,2.000000361287);
#1870 = AXIS2_PLACEMENT_3D('',#1871,#1872,#1873);
#1871 = CARTESIAN_POINT('',(137.84115118215,-102.4096968178,0.));
#1872 = DIRECTION('',(-0.,-0.,-1.));
#1873 = DIRECTION('',(-0.342667029178,-0.939456921372,0.));
#1874 = ADVANCED_FACE('',(#1875),#1886,.T.);
#1875 = FACE_BOUND('',#1876,.T.);
#1876 = EDGE_LOOP('',(#1877,#1878,#1879,#1885));
#1877 = ORIENTED_EDGE('',*,*,#1846,.T.);
#1878 = ORIENTED_EDGE('',*,*,#995,.T.);
#1879 = ORIENTED_EDGE('',*,*,#1880,.F.);
#1880 = EDGE_CURVE('',#452,#988,#1881,.T.);
#1881 = LINE('',#1882,#1883);
#1882 = CARTESIAN_POINT('',(171.493255,-104.091917,0.));
#1883 = VECTOR('',#1884,1.);
#1884 = DIRECTION('',(0.,0.,1.));
#1885 = ORIENTED_EDGE('',*,*,#459,.F.);
#1886 = CYLINDRICAL_SURFACE('',#1887,0.400022563934);
#1887 = AXIS2_PLACEMENT_3D('',#1888,#1889,#1890);
#1888 = CARTESIAN_POINT('',(171.66227943765,-103.7293583273,0.));
#1889 = DIRECTION('',(0.,0.,-1.));
#1890 = DIRECTION('',(0.999999996024,-8.917665538239E-05,0.));
#1891 = ADVANCED_FACE('',(#1892),#1903,.T.);
#1892 = FACE_BOUND('',#1893,.T.);
#1893 = EDGE_LOOP('',(#1894,#1900,#1901,#1902));
#1894 = ORIENTED_EDGE('',*,*,#1895,.T.);
#1895 = EDGE_CURVE('',#316,#852,#1896,.T.);
#1896 = LINE('',#1897,#1898);
#1897 = CARTESIAN_POINT('',(136.656227,-104.495346,0.));
#1898 = VECTOR('',#1899,1.);
#1899 = DIRECTION('',(0.,0.,1.));
#1900 = ORIENTED_EDGE('',*,*,#851,.T.);
#1901 = ORIENTED_EDGE('',*,*,#1861,.F.);
#1902 = ORIENTED_EDGE('',*,*,#315,.F.);
#1903 = CYLINDRICAL_SURFACE('',#1904,0.399999723522);
#1904 = AXIS2_PLACEMENT_3D('',#1905,#1906,#1907);
#1905 = CARTESIAN_POINT('',(137.01874979721,-104.6643933315,0.));
#1906 = DIRECTION('',(0.,0.,-1.));
#1907 = DIRECTION('',(-0.906307619466,0.422618621096,0.));
#1908 = ADVANCED_FACE('',(#1909),#1920,.T.);
#1909 = FACE_BOUND('',#1910,.T.);
#1910 = EDGE_LOOP('',(#1911,#1912,#1913,#1919));
#1911 = ORIENTED_EDGE('',*,*,#1880,.T.);
#1912 = ORIENTED_EDGE('',*,*,#987,.T.);
#1913 = ORIENTED_EDGE('',*,*,#1914,.F.);
#1914 = EDGE_CURVE('',#443,#979,#1915,.T.);
#1915 = LINE('',#1916,#1917);
#1916 = CARTESIAN_POINT('',(170.4268,-103.594621,0.));
#1917 = VECTOR('',#1918,1.);
#1918 = DIRECTION('',(0.,0.,1.));
#1919 = ORIENTED_EDGE('',*,*,#451,.F.);
#1920 = PLANE('',#1921);
#1921 = AXIS2_PLACEMENT_3D('',#1922,#1923,#1924);
#1922 = CARTESIAN_POINT('',(171.493255,-104.091917,0.));
#1923 = DIRECTION('',(-0.422618168497,-0.906307830517,0.));
#1924 = DIRECTION('',(-0.906307830517,0.422618168497,0.));
#1925 = ADVANCED_FACE('',(#1926),#1937,.T.);
#1926 = FACE_BOUND('',#1927,.T.);
#1927 = EDGE_LOOP('',(#1928,#1934,#1935,#1936));
#1928 = ORIENTED_EDGE('',*,*,#1929,.T.);
#1929 = EDGE_CURVE('',#325,#861,#1930,.T.);
#1930 = LINE('',#1931,#1932);
#1931 = CARTESIAN_POINT('',(136.158931,-105.561801,0.));
#1932 = VECTOR('',#1933,1.);
#1933 = DIRECTION('',(0.,0.,1.));
#1934 = ORIENTED_EDGE('',*,*,#860,.T.);
#1935 = ORIENTED_EDGE('',*,*,#1895,.F.);
#1936 = ORIENTED_EDGE('',*,*,#324,.F.);
#1937 = PLANE('',#1938);
#1938 = AXIS2_PLACEMENT_3D('',#1939,#1940,#1941);
#1939 = CARTESIAN_POINT('',(136.158931,-105.561801,0.));
#1940 = DIRECTION('',(-0.906307830517,0.422618168497,0.));
#1941 = DIRECTION('',(0.422618168497,0.906307830517,0.));
#1942 = ADVANCED_FACE('',(#1943),#1954,.T.);
#1943 = FACE_BOUND('',#1944,.T.);
#1944 = EDGE_LOOP('',(#1945,#1946,#1947,#1953));
#1945 = ORIENTED_EDGE('',*,*,#1914,.T.);
#1946 = ORIENTED_EDGE('',*,*,#978,.T.);
#1947 = ORIENTED_EDGE('',*,*,#1948,.F.);
#1948 = EDGE_CURVE('',#434,#970,#1949,.T.);
#1949 = LINE('',#1950,#1951);
#1950 = CARTESIAN_POINT('',(170.220065,-103.095031,0.));
#1951 = VECTOR('',#1952,1.);
#1952 = DIRECTION('',(0.,0.,1.));
#1953 = ORIENTED_EDGE('',*,*,#442,.F.);
#1954 = CYLINDRICAL_SURFACE('',#1955,0.400002313482);
#1955 = AXIS2_PLACEMENT_3D('',#1956,#1957,#1958);
#1956 = CARTESIAN_POINT('',(170.59585057854,-103.2320968591,0.));
#1957 = DIRECTION('',(0.,0.,-1.));
#1958 = DIRECTION('',(-0.422624002027,-0.906305110275,-0.));
#1959 = ADVANCED_FACE('',(#1960),#1971,.T.);
#1960 = FACE_BOUND('',#1961,.T.);
#1961 = EDGE_LOOP('',(#1962,#1968,#1969,#1970));
#1962 = ORIENTED_EDGE('',*,*,#1963,.T.);
#1963 = EDGE_CURVE('',#333,#869,#1964,.T.);
#1964 = LINE('',#1965,#1966);
#1965 = CARTESIAN_POINT('',(136.521454,-106.130848,0.));
#1966 = VECTOR('',#1967,1.);
#1967 = DIRECTION('',(0.,0.,1.));
#1968 = ORIENTED_EDGE('',*,*,#868,.T.);
#1969 = ORIENTED_EDGE('',*,*,#1929,.F.);
#1970 = ORIENTED_EDGE('',*,*,#332,.F.);
#1971 = CYLINDRICAL_SURFACE('',#1972,0.399999237686);
#1972 = AXIS2_PLACEMENT_3D('',#1973,#1974,#1975);
#1973 = CARTESIAN_POINT('',(136.5214530603,-105.7308487623,0.));
#1974 = DIRECTION('',(0.,0.,-1.));
#1975 = DIRECTION('',(2.349250394966E-06,-0.999999999997,0.));
#1976 = ADVANCED_FACE('',(#1977),#1988,.F.);
#1977 = FACE_BOUND('',#1978,.T.);
#1978 = EDGE_LOOP('',(#1979,#1980,#1981,#1987));
#1979 = ORIENTED_EDGE('',*,*,#1948,.T.);
#1980 = ORIENTED_EDGE('',*,*,#969,.T.);
#1981 = ORIENTED_EDGE('',*,*,#1982,.F.);
#1982 = EDGE_CURVE('',#425,#961,#1983,.T.);
#1983 = LINE('',#1984,#1985);
#1984 = CARTESIAN_POINT('',(169.026485,-104.288611,0.));
#1985 = VECTOR('',#1986,1.);
#1986 = DIRECTION('',(0.,0.,1.));
#1987 = ORIENTED_EDGE('',*,*,#433,.F.);
#1988 = CYLINDRICAL_SURFACE('',#1989,2.000000361287);
#1989 = AXIS2_PLACEMENT_3D('',#1990,#1991,#1992);
#1990 = CARTESIAN_POINT('',(168.34115081784,-102.4096968178,0.));
#1991 = DIRECTION('',(-0.,-0.,-1.));
#1992 = DIRECTION('',(0.939456921372,-0.342667029178,0.));
#1993 = ADVANCED_FACE('',(#1994),#2005,.T.);
#1994 = FACE_BOUND('',#1995,.T.);
#1995 = EDGE_LOOP('',(#1996,#2002,#2003,#2004));
#1996 = ORIENTED_EDGE('',*,*,#1997,.T.);
#1997 = EDGE_CURVE('',#342,#878,#1998,.T.);
#1998 = LINE('',#1999,#2000);
#1999 = CARTESIAN_POINT('',(140.418722,-106.130848,0.));
#2000 = VECTOR('',#2001,1.);
#2001 = DIRECTION('',(0.,0.,1.));
#2002 = ORIENTED_EDGE('',*,*,#877,.T.);
#2003 = ORIENTED_EDGE('',*,*,#1963,.F.);
#2004 = ORIENTED_EDGE('',*,*,#341,.F.);
#2005 = PLANE('',#2006);
#2006 = AXIS2_PLACEMENT_3D('',#2007,#2008,#2009);
#2007 = CARTESIAN_POINT('',(140.418722,-106.130848,0.));
#2008 = DIRECTION('',(0.,-1.,0.));
#2009 = DIRECTION('',(-1.,0.,0.));
#2010 = ADVANCED_FACE('',(#2011),#2022,.T.);
#2011 = FACE_BOUND('',#2012,.T.);
#2012 = EDGE_LOOP('',(#2013,#2014,#2015,#2021));
#2013 = ORIENTED_EDGE('',*,*,#1982,.T.);
#2014 = ORIENTED_EDGE('',*,*,#960,.T.);
#2015 = ORIENTED_EDGE('',*,*,#2016,.F.);
#2016 = EDGE_CURVE('',#417,#953,#2017,.T.);
#2017 = LINE('',#2018,#2019);
#2018 = CARTESIAN_POINT('',(169.526075,-104.495346,0.));
#2019 = VECTOR('',#2020,1.);
#2020 = DIRECTION('',(0.,0.,1.));
#2021 = ORIENTED_EDGE('',*,*,#424,.F.);
#2022 = CYLINDRICAL_SURFACE('',#2023,0.400002313482);
#2023 = AXIS2_PLACEMENT_3D('',#2024,#2025,#2026);
#2024 = CARTESIAN_POINT('',(169.16355085916,-104.6643965785,0.));
#2025 = DIRECTION('',(0.,0.,-1.));
#2026 = DIRECTION('',(-0.342662666062,0.939458512808,0.));
#2027 = ADVANCED_FACE('',(#2028),#2039,.T.);
#2028 = FACE_BOUND('',#2029,.T.);
#2029 = EDGE_LOOP('',(#2030,#2036,#2037,#2038));
#2030 = ORIENTED_EDGE('',*,*,#2031,.T.);
#2031 = EDGE_CURVE('',#350,#886,#2032,.T.);
#2032 = LINE('',#2033,#2034);
#2033 = CARTESIAN_POINT('',(142.48784,-104.682036,0.));
#2034 = VECTOR('',#2035,1.);
#2035 = DIRECTION('',(0.,0.,1.));
#2036 = ORIENTED_EDGE('',*,*,#885,.T.);
#2037 = ORIENTED_EDGE('',*,*,#1997,.F.);
#2038 = ORIENTED_EDGE('',*,*,#349,.F.);
#2039 = PLANE('',#2040);
#2040 = AXIS2_PLACEMENT_3D('',#2041,#2042,#2043);
#2041 = CARTESIAN_POINT('',(142.48784,-104.682036,0.));
#2042 = DIRECTION('',(0.57357643076,-0.819152048204,0.));
#2043 = DIRECTION('',(-0.819152048204,-0.57357643076,0.));
#2044 = ADVANCED_FACE('',(#2045),#2056,.T.);
#2045 = FACE_BOUND('',#2046,.T.);
#2046 = EDGE_LOOP('',(#2047,#2048,#2049,#2055));
#2047 = ORIENTED_EDGE('',*,*,#2016,.T.);
#2048 = ORIENTED_EDGE('',*,*,#952,.T.);
#2049 = ORIENTED_EDGE('',*,*,#2050,.F.);
#2050 = EDGE_CURVE('',#408,#944,#2051,.T.);
#2051 = LINE('',#2052,#2053);
#2052 = CARTESIAN_POINT('',(170.023371,-105.561801,0.));
#2053 = VECTOR('',#2054,1.);
#2054 = DIRECTION('',(0.,0.,1.));
#2055 = ORIENTED_EDGE('',*,*,#416,.F.);
#2056 = PLANE('',#2057);
#2057 = AXIS2_PLACEMENT_3D('',#2058,#2059,#2060);
#2058 = CARTESIAN_POINT('',(169.526075,-104.495346,0.));
#2059 = DIRECTION('',(0.906307830517,0.422618168497,-0.));
#2060 = DIRECTION('',(0.422618168497,-0.906307830517,0.));
#2061 = ADVANCED_FACE('',(#2062),#2073,.F.);
#2062 = FACE_BOUND('',#2063,.T.);
#2063 = EDGE_LOOP('',(#2064,#2070,#2071,#2072));
#2064 = ORIENTED_EDGE('',*,*,#2065,.T.);
#2065 = EDGE_CURVE('',#358,#894,#2066,.T.);
#2066 = LINE('',#2067,#2068);
#2067 = CARTESIAN_POINT('',(142.717271,-104.609697,0.));
#2068 = VECTOR('',#2069,1.);
#2069 = DIRECTION('',(0.,0.,1.));
#2070 = ORIENTED_EDGE('',*,*,#893,.T.);
#2071 = ORIENTED_EDGE('',*,*,#2031,.F.);
#2072 = ORIENTED_EDGE('',*,*,#357,.F.);
#2073 = CYLINDRICAL_SURFACE('',#2074,0.39999571705);
#2074 = AXIS2_PLACEMENT_3D('',#2075,#2076,#2077);
#2075 = CARTESIAN_POINT('',(142.7172689638,-105.009692717,0.));
#2076 = DIRECTION('',(-0.,-0.,-1.));
#2077 = DIRECTION('',(5.090535929331E-06,0.999999999987,-0.));
#2078 = ADVANCED_FACE('',(#2079),#2090,.T.);
#2079 = FACE_BOUND('',#2080,.T.);
#2080 = EDGE_LOOP('',(#2081,#2082,#2083,#2089));
#2081 = ORIENTED_EDGE('',*,*,#2050,.T.);
#2082 = ORIENTED_EDGE('',*,*,#943,.T.);
#2083 = ORIENTED_EDGE('',*,*,#2084,.F.);
#2084 = EDGE_CURVE('',#400,#936,#2085,.T.);
#2085 = LINE('',#2086,#2087);
#2086 = CARTESIAN_POINT('',(169.660848,-106.130848,0.));
#2087 = VECTOR('',#2088,1.);
#2088 = DIRECTION('',(0.,0.,1.));
#2089 = ORIENTED_EDGE('',*,*,#407,.F.);
#2090 = CYLINDRICAL_SURFACE('',#2091,0.39994589786);
#2091 = AXIS2_PLACEMENT_3D('',#2092,#2093,#2094);
#2092 = CARTESIAN_POINT('',(169.6609326805,-105.7309021111,0.));
#2093 = DIRECTION('',(0.,0.,-1.));
#2094 = DIRECTION('',(0.90621836962,0.42280996507,0.));
#2095 = ADVANCED_FACE('',(#2096),#2107,.T.);
#2096 = FACE_BOUND('',#2097,.T.);
#2097 = EDGE_LOOP('',(#2098,#2104,#2105,#2106));
#2098 = ORIENTED_EDGE('',*,*,#2099,.T.);
#2099 = EDGE_CURVE('',#367,#903,#2100,.T.);
#2100 = LINE('',#2101,#2102);
#2101 = CARTESIAN_POINT('',(153.091151,-104.609697,0.));
#2102 = VECTOR('',#2103,1.);
#2103 = DIRECTION('',(0.,0.,1.));
#2104 = ORIENTED_EDGE('',*,*,#902,.T.);
#2105 = ORIENTED_EDGE('',*,*,#2065,.F.);
#2106 = ORIENTED_EDGE('',*,*,#366,.F.);
#2107 = PLANE('',#2108);
#2108 = AXIS2_PLACEMENT_3D('',#2109,#2110,#2111);
#2109 = CARTESIAN_POINT('',(153.091151,-104.609697,0.));
#2110 = DIRECTION('',(0.,-1.,0.));
#2111 = DIRECTION('',(-1.,0.,0.));
#2112 = ADVANCED_FACE('',(#2113),#2124,.T.);
#2113 = FACE_BOUND('',#2114,.T.);
#2114 = EDGE_LOOP('',(#2115,#2116,#2117,#2123));
#2115 = ORIENTED_EDGE('',*,*,#2084,.T.);
#2116 = ORIENTED_EDGE('',*,*,#935,.T.);
#2117 = ORIENTED_EDGE('',*,*,#2118,.F.);
#2118 = EDGE_CURVE('',#392,#928,#2119,.T.);
#2119 = LINE('',#2120,#2121);
#2120 = CARTESIAN_POINT('',(165.76358,-106.130848,0.));
#2121 = VECTOR('',#2122,1.);
#2122 = DIRECTION('',(0.,0.,1.));
#2123 = ORIENTED_EDGE('',*,*,#399,.F.);
#2124 = PLANE('',#2125);
#2125 = AXIS2_PLACEMENT_3D('',#2126,#2127,#2128);
#2126 = CARTESIAN_POINT('',(169.660848,-106.130848,0.));
#2127 = DIRECTION('',(0.,-1.,0.));
#2128 = DIRECTION('',(-1.,0.,0.));
#2129 = ADVANCED_FACE('',(#2130),#2141,.T.);
#2130 = FACE_BOUND('',#2131,.T.);
#2131 = EDGE_LOOP('',(#2132,#2138,#2139,#2140));
#2132 = ORIENTED_EDGE('',*,*,#2133,.T.);
#2133 = EDGE_CURVE('',#375,#911,#2134,.T.);
#2134 = LINE('',#2135,#2136);
#2135 = CARTESIAN_POINT('',(163.465031,-104.609697,0.));
#2136 = VECTOR('',#2137,1.);
#2137 = DIRECTION('',(0.,0.,1.));
#2138 = ORIENTED_EDGE('',*,*,#910,.T.);
#2139 = ORIENTED_EDGE('',*,*,#2099,.F.);
#2140 = ORIENTED_EDGE('',*,*,#374,.F.);
#2141 = PLANE('',#2142);
#2142 = AXIS2_PLACEMENT_3D('',#2143,#2144,#2145);
#2143 = CARTESIAN_POINT('',(163.465031,-104.609697,0.));
#2144 = DIRECTION('',(0.,-1.,0.));
#2145 = DIRECTION('',(-1.,0.,0.));
#2146 = ADVANCED_FACE('',(#2147),#2158,.T.);
#2147 = FACE_BOUND('',#2148,.T.);
#2148 = EDGE_LOOP('',(#2149,#2150,#2151,#2157));
#2149 = ORIENTED_EDGE('',*,*,#2118,.T.);
#2150 = ORIENTED_EDGE('',*,*,#927,.T.);
#2151 = ORIENTED_EDGE('',*,*,#2152,.F.);
#2152 = EDGE_CURVE('',#383,#919,#2153,.T.);
#2153 = LINE('',#2154,#2155);
#2154 = CARTESIAN_POINT('',(163.694462,-104.682036,0.));
#2155 = VECTOR('',#2156,1.);
#2156 = DIRECTION('',(0.,0.,1.));
#2157 = ORIENTED_EDGE('',*,*,#391,.F.);
#2158 = PLANE('',#2159);
#2159 = AXIS2_PLACEMENT_3D('',#2160,#2161,#2162);
#2160 = CARTESIAN_POINT('',(165.76358,-106.130848,0.));
#2161 = DIRECTION('',(-0.57357643076,-0.819152048204,0.));
#2162 = DIRECTION('',(-0.819152048204,0.57357643076,0.));
#2163 = ADVANCED_FACE('',(#2164),#2170,.F.);
#2164 = FACE_BOUND('',#2165,.T.);
#2165 = EDGE_LOOP('',(#2166,#2167,#2168,#2169));
#2166 = ORIENTED_EDGE('',*,*,#2152,.T.);
#2167 = ORIENTED_EDGE('',*,*,#918,.T.);
#2168 = ORIENTED_EDGE('',*,*,#2133,.F.);
#2169 = ORIENTED_EDGE('',*,*,#382,.F.);
#2170 = CYLINDRICAL_SURFACE('',#2171,0.39988509768);
#2171 = AXIS2_PLACEMENT_3D('',#2172,#2173,#2174);
#2172 = CARTESIAN_POINT('',(163.46506791472,-105.0095820959,0.));
#2173 = DIRECTION('',(-0.,-0.,-1.));
#2174 = DIRECTION('',(0.573649997467,0.819100531319,-0.));
#2175 = ADVANCED_FACE('',(#2176),#2187,.F.);
#2176 = FACE_BOUND('',#2177,.T.);
#2177 = EDGE_LOOP('',(#2178,#2179,#2185,#2186));
#2178 = ORIENTED_EDGE('',*,*,#629,.T.);
#2179 = ORIENTED_EDGE('',*,*,#2180,.T.);
#2180 = EDGE_CURVE('',#630,#1166,#2181,.T.);
#2181 = LINE('',#2182,#2183);
#2182 = CARTESIAN_POINT('',(139.46,-93.22,-4.6E-02));
#2183 = VECTOR('',#2184,1.);
#2184 = DIRECTION('',(0.,0.,1.));
#2185 = ORIENTED_EDGE('',*,*,#1165,.F.);
#2186 = ORIENTED_EDGE('',*,*,#2180,.F.);
#2187 = CYLINDRICAL_SURFACE('',#2188,0.6);
#2188 = AXIS2_PLACEMENT_3D('',#2189,#2190,#2191);
#2189 = CARTESIAN_POINT('',(139.46,-92.62,-4.6E-02));
#2190 = DIRECTION('',(-0.,-0.,-1.));
#2191 = DIRECTION('',(-0.,-1.,0.));
#2192 = ADVANCED_FACE('',(#2193),#2204,.F.);
#2193 = FACE_BOUND('',#2194,.T.);
#2194 = EDGE_LOOP('',(#2195,#2196,#2202,#2203));
#2195 = ORIENTED_EDGE('',*,*,#640,.T.);
#2196 = ORIENTED_EDGE('',*,*,#2197,.T.);
#2197 = EDGE_CURVE('',#641,#1177,#2198,.T.);
#2198 = LINE('',#2199,#2200);
#2199 = CARTESIAN_POINT('',(165.5125,-92.47,-4.6E-02));
#2200 = VECTOR('',#2201,1.);
#2201 = DIRECTION('',(0.,0.,1.));
#2202 = ORIENTED_EDGE('',*,*,#1176,.F.);
#2203 = ORIENTED_EDGE('',*,*,#2197,.F.);
#2204 = CYLINDRICAL_SURFACE('',#2205,0.3);
#2205 = AXIS2_PLACEMENT_3D('',#2206,#2207,#2208);
#2206 = CARTESIAN_POINT('',(165.5125,-92.17,-4.6E-02));
#2207 = DIRECTION('',(-0.,-0.,-1.));
#2208 = DIRECTION('',(-0.,-1.,0.));
#2209 = ADVANCED_FACE('',(#2210),#2221,.F.);
#2210 = FACE_BOUND('',#2211,.T.);
#2211 = EDGE_LOOP('',(#2212,#2213,#2219,#2220));
#2212 = ORIENTED_EDGE('',*,*,#651,.T.);
#2213 = ORIENTED_EDGE('',*,*,#2214,.T.);
#2214 = EDGE_CURVE('',#652,#1188,#2215,.T.);
#2215 = LINE('',#2216,#2217);
#2216 = CARTESIAN_POINT('',(139.46,-85.22,-4.6E-02));
#2217 = VECTOR('',#2218,1.);
#2218 = DIRECTION('',(0.,0.,1.));
#2219 = ORIENTED_EDGE('',*,*,#1187,.F.);
#2220 = ORIENTED_EDGE('',*,*,#2214,.F.);
#2221 = CYLINDRICAL_SURFACE('',#2222,0.6);
#2222 = AXIS2_PLACEMENT_3D('',#2223,#2224,#2225);
#2223 = CARTESIAN_POINT('',(139.46,-84.62,-4.6E-02));
#2224 = DIRECTION('',(-0.,-0.,-1.));
#2225 = DIRECTION('',(-0.,-1.,0.));
#2226 = ADVANCED_FACE('',(#2227),#2238,.F.);
#2227 = FACE_BOUND('',#2228,.T.);
#2228 = EDGE_LOOP('',(#2229,#2230,#2236,#2237));
#2229 = ORIENTED_EDGE('',*,*,#662,.T.);
#2230 = ORIENTED_EDGE('',*,*,#2231,.T.);
#2231 = EDGE_CURVE('',#663,#1199,#2232,.T.);
#2232 = LINE('',#2233,#2234);
#2233 = CARTESIAN_POINT('',(165.5125,-86.69,-4.6E-02));
#2234 = VECTOR('',#2235,1.);
#2235 = DIRECTION('',(0.,0.,1.));
#2236 = ORIENTED_EDGE('',*,*,#1198,.F.);
#2237 = ORIENTED_EDGE('',*,*,#2231,.F.);
#2238 = CYLINDRICAL_SURFACE('',#2239,0.3);
#2239 = AXIS2_PLACEMENT_3D('',#2240,#2241,#2242);
#2240 = CARTESIAN_POINT('',(165.5125,-86.39,-4.6E-02));
#2241 = DIRECTION('',(-0.,-0.,-1.));
#2242 = DIRECTION('',(-0.,-1.,0.));
#2243 = ( GEOMETRIC_REPRESENTATION_CONTEXT(3) 
GLOBAL_UNCERTAINTY_ASSIGNED_CONTEXT((#2247)) 
GLOBAL_UNIT_ASSIGNED_CONTEXT((#2244,#2245,#2246)) REPRESENTATION_CONTEXT
('Context #1','3D Context with UNIT and UNCERTAINTY') );
#2244 = ( LENGTH_UNIT() NAMED_UNIT(*) SI_UNIT(.MILLI.,.METRE.) );
#2245 = ( NAMED_UNIT(*) PLANE_ANGLE_UNIT() SI_UNIT($,.RADIAN.) );
#2246 = ( NAMED_UNIT(*) SI_UNIT($,.STERADIAN.) SOLID_ANGLE_UNIT() );
#2247 = UNCERTAINTY_MEASURE_WITH_UNIT(LENGTH_MEASURE(1.E-07),#2244,
  'distance_accuracy_value','confusion accuracy');
#2248 = CONTEXT_DEPENDENT_SHAPE_REPRESENTATION(#2249,#2251);
#2249 = ( REPRESENTATION_RELATIONSHIP('','',#32,#10) 
REPRESENTATION_RELATIONSHIP_WITH_TRANSFORMATION(#2250) 
SHAPE_REPRESENTATION_RELATIONSHIP() );
#2250 = ITEM_DEFINED_TRANSFORMATION('','',#11,#15);
#2251 = PRODUCT_DEFINITION_SHAPE('Placement','Placement of an item',
  #2252);
#2252 = NEXT_ASSEMBLY_USAGE_OCCURRENCE('1','=>[0:1:1:2]','',#5,#27,$);
#2253 = PRODUCT_RELATED_PRODUCT_CATEGORY('part',$,(#29));
#2254 = MECHANICAL_DESIGN_GEOMETRIC_PRESENTATION_REPRESENTATION('',(
    #2255),#2243);
#2255 = STYLED_ITEM('color',(#2256),#33);
#2256 = PRESENTATION_STYLE_ASSIGNMENT((#2257));
#2257 = SURFACE_STYLE_USAGE(.BOTH.,#2258);
#2258 = SURFACE_SIDE_STYLE('',(#2259));
#2259 = SURFACE_STYLE_FILL_AREA(#2260);
#2260 = FILL_AREA_STYLE('',(#2261));
#2261 = FILL_AREA_STYLE_COLOUR('',#2262);
#2262 = COLOUR_RGB('',0.313304153717,0.484529207832,0.410020903123);
ENDSEC;
END-ISO-10303-21;
